<svg width="632" height="371" viewBox="0 0 632 371" fill="none" xmlns="http://www.w3.org/2000/svg">
<g clip-path="url(#clip0_127_122)">
<path d="M165 147C165 65.8141 230.814 0 312 0V0C393.186 0 459 65.8141 459 147V371H165V147Z" fill="#C2ACFF"/>
<path d="M210 168.5C210 87.038 276.038 21 357.5 21V21C438.962 21 505 87.038 505 168.5V393H210V168.5Z" fill="#63537E"/>
<path d="M378.374 262.177L366.291 250.163C363.974 247.849 362.134 245.091 360.879 242.05C359.625 239.009 358.98 235.746 358.982 232.45V214.934L297.237 228.503L278.49 230.353C300.538 261.881 341.1 269.035 378.374 262.177Z" fill="url(#paint0_linear_127_122)"/>
<path opacity="0.61" d="M378.374 262.177L366.291 250.163C363.974 247.849 362.134 245.091 360.879 242.05C359.625 239.009 358.98 235.746 358.982 232.45V214.934L297.237 228.503L278.49 230.353C300.538 261.881 341.1 269.035 378.374 262.177Z" fill="url(#paint1_radial_127_122)"/>
<path d="M449.009 448.437L437.705 341.961C435.354 326.162 427.996 311.565 416.741 300.368L378.371 262.129C341.097 268.987 300.535 261.833 278.487 230.33L259.351 233.327C251.842 234.506 244.851 237.923 239.269 243.143C233.686 248.363 229.767 255.149 228.009 262.635L198.117 389.944L341.585 493.151L358.833 486.416L382.988 487.81V368.284L402.136 445.785C402.744 448.331 402.585 451.003 401.68 453.456C400.774 455.91 399.164 458.032 397.057 459.551L358.833 486.416C358.833 486.416 388.067 494.693 387.178 506.362C401.43 498.209 425.487 485.393 425.487 485.393C444.124 473.317 452.297 470.566 449.009 448.437Z" fill="#C2ACFF"/>
<path d="M449.009 448.437L437.705 341.961C435.354 326.162 427.996 311.565 416.741 300.368L378.371 262.129C341.097 268.987 300.535 261.833 278.487 230.33L259.351 233.327C251.842 234.506 244.851 237.923 239.269 243.143C233.686 248.363 229.767 255.149 228.009 262.635L198.117 389.944L338.478 494.792L358.906 486.367L383.061 469.098V348.867L402.209 445.773C402.817 448.318 402.658 450.99 401.753 453.444C400.848 455.897 399.237 458.02 397.13 459.538L358.906 486.404C358.906 486.404 388.14 494.681 387.251 506.35C401.503 498.196 425.56 485.38 425.56 485.38C444.124 473.317 452.297 470.566 449.009 448.437Z" fill="url(#paint2_radial_127_122)"/>
<path opacity="0.76" d="M382.717 462.598L341.224 491.207L295.604 435.816L381.731 317.107L382.717 462.598Z" fill="url(#paint3_linear_127_122)"/>
<path d="M287.597 121.326C282.766 127.57 280.145 135.276 280.154 143.208L286.154 210.397C286.159 212.964 286.838 215.484 288.122 217.697C289.407 219.911 291.25 221.738 293.463 222.991C301.946 227.938 305.727 230.126 315.479 229.257C324.773 228.615 334.567 226.63 342.972 222.608C346.699 220.82 358.953 215.479 359.026 214.936L364.581 174.613C337.5 138.5 307.21 146.711 287.597 121.326Z" fill="url(#paint4_linear_127_122)"/>
<path opacity="0.9" d="M287.597 121.326C282.766 127.57 280.145 135.276 280.154 143.208L286.154 210.397C286.159 212.964 286.838 215.484 288.122 217.697C289.407 219.911 291.25 221.738 293.463 222.991C301.946 227.938 305.727 230.126 315.479 229.257C324.773 228.615 334.567 226.63 342.972 222.608C346.699 220.82 358.953 215.479 359.026 214.936L364.581 174.613C338 138 307.21 146.711 287.597 121.326Z" fill="url(#paint5_radial_127_122)"/>
<path d="M364.509 174.613L365.02 170.912C366.144 162.798 366.418 154.587 365.836 146.415L365.41 140.395C363.96 121.893 345.579 108.09 327.271 108.09L315.249 107.695C309.918 107.691 304.656 108.918 299.864 111.285C295.072 113.651 285 121 281.5 132.5C279.902 146.15 292.622 150.257 304.5 145C335 131.5 324.5 179 364.509 174.613Z" fill="url(#paint6_radial_127_122)"/>
<path d="M351.359 174.507C353.746 172.125 356.968 170.775 360.319 170.754C363.67 170.733 366.875 172.042 369.232 174.394C371.588 176.75 372.9 179.957 372.881 183.31C372.861 186.663 371.512 189.888 369.128 192.276C366.741 194.663 363.515 196.016 360.16 196.037C356.805 196.058 353.595 194.746 351.238 192.388" fill="url(#paint7_linear_127_122)"/>
<path d="M275.524 79.5C260.724 79.5 257.69 67.8333 258.024 62H275.524C267.524 70.0001 276.024 79.5 275.524 79.5Z" fill="#F6F5F9"/>
</g>
<path d="M150.524 214.5C135.724 214.5 132.69 202.833 133.024 197H150.524C142.524 205 151.024 214.5 150.524 214.5Z" fill="#F6F5F9"/>
<path d="M216.524 270C201.724 270 198.69 281.667 199.024 287.5H216.524C208.524 279.5 217.024 270 216.524 270Z" fill="#F6F5F9"/>
<path d="M448.021 265C462.821 265 465.855 276.667 465.521 282.5H448.021C456.021 274.5 447.521 265 448.021 265Z" fill="#F6F5F9"/>
<path d="M447.021 105.5C461.821 105.5 464.855 93.8333 464.521 88H447.021C455.021 96.0001 446.521 105.5 447.021 105.5Z" fill="#F6F5F9"/>
<rect x="85" y="14" width="234" height="52" rx="26" fill="#F6F5F9"/>
<path d="M120.221 47H126.653C130.109 47 132.173 45.128 132.173 42.104C132.173 39.752 130.925 38.408 129.221 37.808C130.349 37.328 131.429 36.08 131.429 34.52C131.429 31.784 129.461 30.2 126.293 30.2H120.221V47ZM122.381 37.112V32.072H126.197C128.189 32.072 129.269 32.912 129.269 34.592C129.269 36.272 128.189 37.112 126.197 37.112H122.381ZM122.381 45.032V39.032H126.293C128.741 39.032 129.989 40.088 129.989 42.056C129.989 44 128.741 45.032 126.293 45.032H122.381ZM145.764 40.4C145.764 37.28 143.556 34.712 139.98 34.712C136.332 34.712 134.124 37.52 134.124 40.952C134.124 44.384 136.404 47.192 140.028 47.192C142.812 47.192 144.828 45.824 145.428 43.472L143.508 43.016C143.148 44.528 141.876 45.392 140.028 45.392C137.844 45.392 136.308 43.784 136.164 41.336H145.716C145.74 41.12 145.764 40.688 145.764 40.4ZM136.284 39.632C136.692 37.616 138.084 36.416 139.98 36.416C142.116 36.416 143.412 37.784 143.604 39.632H136.284ZM148.39 47H150.43V41.816C150.43 38.576 151.87 36.56 154.102 36.56C155.95 36.56 157.054 37.64 157.054 39.416V47H159.094V39.032C159.094 36.416 157.294 34.712 154.558 34.712C152.782 34.712 151.318 35.552 150.43 37.28V30.008H148.39V47ZM166.918 34.712C164.374 34.712 162.382 36.272 162.022 38.672L163.918 39.032C164.086 37.4 165.262 36.416 166.918 36.416C168.694 36.416 169.87 37.472 169.87 39.128V39.368L167.518 39.632C163.654 40.016 161.758 41.288 161.758 43.616C161.758 45.704 163.414 47.192 165.838 47.192C167.59 47.192 169.174 46.328 169.87 44.936V47H171.886V39.248C171.886 36.44 169.846 34.712 166.918 34.712ZM166.15 45.512C164.758 45.512 163.798 44.72 163.798 43.592C163.798 42.32 165.07 41.48 167.518 41.216L169.87 40.952V41.528C169.87 43.952 168.502 45.512 166.15 45.512ZM177.876 47H179.964L184.404 34.904H182.292L178.908 44.624L175.548 34.904H173.46L177.876 47ZM186.239 30.008V32.6H188.591V30.008H186.239ZM186.383 47H188.423V34.904H186.383V47ZM197.174 47.192C200.75 47.192 203.342 44.576 203.342 40.952C203.342 37.328 200.75 34.712 197.174 34.712C193.574 34.712 191.03 37.328 191.03 40.952C191.03 44.576 193.574 47.192 197.174 47.192ZM197.174 45.368C194.75 45.368 193.118 43.544 193.118 40.952C193.118 38.36 194.75 36.536 197.174 36.536C199.598 36.536 201.23 38.36 201.23 40.952C201.23 43.544 199.598 45.368 197.174 45.368ZM213.033 36.896L213.153 34.928C212.745 34.784 212.265 34.712 211.761 34.712C210.273 34.712 208.689 35.816 207.993 37.352V34.904H205.953V47H207.993V42.392C207.993 38.456 209.553 36.608 211.473 36.608C212.001 36.608 212.577 36.704 213.033 36.896ZM219.23 34.712C216.687 34.712 214.695 36.272 214.335 38.672L216.23 39.032C216.399 37.4 217.575 36.416 219.23 36.416C221.007 36.416 222.183 37.472 222.183 39.128V39.368L219.831 39.632C215.967 40.016 214.071 41.288 214.071 43.616C214.071 45.704 215.727 47.192 218.151 47.192C219.903 47.192 221.487 46.328 222.183 44.936V47H224.199V39.248C224.199 36.44 222.159 34.712 219.23 34.712ZM218.463 45.512C217.071 45.512 216.111 44.72 216.111 43.592C216.111 42.32 217.383 41.48 219.831 41.216L222.183 40.952V41.528C222.183 43.952 220.815 45.512 218.463 45.512ZM227.515 47H229.555V30.008H227.515V47ZM243.784 47.192C245.56 47.192 247.168 46.352 247.72 45.248V47H249.76V30.008H247.72V36.632C246.952 35.504 245.368 34.712 243.76 34.712C240.016 34.712 237.952 37.4 237.952 40.952C237.952 44.504 240.016 47.192 243.784 47.192ZM243.976 45.368C241.6 45.368 240.04 43.616 240.04 40.952C240.04 38.288 241.6 36.536 243.976 36.536C246.352 36.536 247.912 38.288 247.912 40.952C247.912 43.616 246.352 45.368 243.976 45.368ZM257.574 34.712C255.03 34.712 253.038 36.272 252.678 38.672L254.574 39.032C254.742 37.4 255.918 36.416 257.574 36.416C259.35 36.416 260.526 37.472 260.526 39.128V39.368L258.174 39.632C254.31 40.016 252.414 41.288 252.414 43.616C252.414 45.704 254.07 47.192 256.494 47.192C258.246 47.192 259.83 46.328 260.526 44.936V47H262.542V39.248C262.542 36.44 260.502 34.712 257.574 34.712ZM256.806 45.512C255.414 45.512 254.454 44.72 254.454 43.592C254.454 42.32 255.726 41.48 258.174 41.216L260.526 40.952V41.528C260.526 43.952 259.158 45.512 256.806 45.512ZM272.221 46.904L272.077 45.032C271.597 45.272 271.045 45.344 270.565 45.344C269.509 45.344 268.789 44.72 268.789 43.448V36.704H272.029V34.904H268.789V31.232H266.749V34.904H264.493V36.704H266.749V43.376C266.749 46.04 268.261 47.192 270.325 47.192C270.973 47.192 271.621 47.12 272.221 46.904ZM278.902 34.712C276.358 34.712 274.366 36.272 274.006 38.672L275.902 39.032C276.07 37.4 277.246 36.416 278.902 36.416C280.678 36.416 281.854 37.472 281.854 39.128V39.368L279.502 39.632C275.638 40.016 273.742 41.288 273.742 43.616C273.742 45.704 275.398 47.192 277.822 47.192C279.574 47.192 281.158 46.328 281.854 44.936V47H283.87V39.248C283.87 36.44 281.83 34.712 278.902 34.712ZM278.134 45.512C276.742 45.512 275.782 44.72 275.782 43.592C275.782 42.32 277.054 41.48 279.502 41.216L281.854 40.952V41.528C281.854 43.952 280.486 45.512 278.134 45.512Z" fill="#100024"/>
<rect x="365" y="40" width="257" height="52" rx="26" fill="#F6F5F9"/>
<path d="M394.201 73H399.193C403.897 73 407.617 70 407.617 64.6C407.617 59.2 403.897 56.2 399.193 56.2H394.201V73ZM396.361 71.032V58.144H399.121C402.361 58.144 405.361 60.016 405.361 64.6C405.361 69.184 402.361 71.032 399.121 71.032H396.361ZM421.198 66.4C421.198 63.28 418.99 60.712 415.414 60.712C411.766 60.712 409.558 63.52 409.558 66.952C409.558 70.384 411.838 73.192 415.462 73.192C418.246 73.192 420.262 71.824 420.862 69.472L418.942 69.016C418.582 70.528 417.31 71.392 415.462 71.392C413.278 71.392 411.742 69.784 411.598 67.336H421.15C421.174 67.12 421.198 66.688 421.198 66.4ZM411.718 65.632C412.126 63.616 413.518 62.416 415.414 62.416C417.55 62.416 418.846 63.784 419.038 65.632H411.718ZM423.824 73H425.864V66.928C425.864 64.36 426.992 62.512 429.056 62.512C430.736 62.512 431.672 63.64 431.672 65.296V73H433.712V66.928C433.712 64.36 434.84 62.512 436.904 62.512C438.608 62.512 439.544 63.64 439.544 65.296V73H441.584V64.888C441.584 62.344 439.952 60.712 437.36 60.712C435.536 60.712 434.096 61.816 433.448 63.256C433.016 61.624 431.48 60.712 429.512 60.712C427.664 60.712 426.464 61.744 425.864 63.184V60.904H423.824V73ZM450.342 73.192C453.918 73.192 456.51 70.576 456.51 66.952C456.51 63.328 453.918 60.712 450.342 60.712C446.742 60.712 444.198 63.328 444.198 66.952C444.198 70.576 446.742 73.192 450.342 73.192ZM450.342 71.368C447.918 71.368 446.286 69.544 446.286 66.952C446.286 64.36 447.918 62.536 450.342 62.536C452.766 62.536 454.398 64.36 454.398 66.952C454.398 69.544 452.766 71.368 450.342 71.368ZM468.049 60.904V62.536C467.329 61.48 465.745 60.712 464.137 60.712C460.465 60.712 458.425 63.28 458.425 66.712C458.425 70.12 460.465 72.688 464.185 72.688C465.913 72.688 467.497 71.992 468.049 70.96V72.64C468.049 74.536 466.561 75.832 464.425 75.832C462.577 75.832 461.161 74.896 461.041 73.552L459.073 73.888C459.433 76.072 461.617 77.56 464.425 77.56C467.761 77.56 470.065 75.472 470.065 72.424V60.904H468.049ZM464.377 70.864C462.025 70.864 460.513 69.232 460.513 66.712C460.513 64.168 462.025 62.536 464.377 62.536C466.705 62.536 468.217 64.168 468.217 66.712C468.217 69.232 466.705 70.864 464.377 70.864ZM480.451 62.896L480.571 60.928C480.163 60.784 479.683 60.712 479.179 60.712C477.691 60.712 476.107 61.816 475.411 63.352V60.904H473.371V73H475.411V68.392C475.411 64.456 476.971 62.608 478.891 62.608C479.419 62.608 479.995 62.704 480.451 62.896ZM486.648 60.712C484.104 60.712 482.112 62.272 481.752 64.672L483.648 65.032C483.816 63.4 484.992 62.416 486.648 62.416C488.424 62.416 489.6 63.472 489.6 65.128V65.368L487.248 65.632C483.384 66.016 481.488 67.288 481.488 69.616C481.488 71.704 483.144 73.192 485.568 73.192C487.32 73.192 488.904 72.328 489.6 70.936V73H491.616V65.248C491.616 62.44 489.576 60.712 486.648 60.712ZM485.88 71.512C484.488 71.512 483.528 70.72 483.528 69.592C483.528 68.32 484.8 67.48 487.248 67.216L489.6 66.952V67.528C489.6 69.952 488.232 71.512 485.88 71.512ZM494.933 77.368H496.973V71.32C497.789 72.424 499.373 73.192 500.909 73.192C504.629 73.192 506.741 70.504 506.741 66.952C506.741 63.4 504.677 60.712 500.957 60.712C499.205 60.712 497.621 61.552 496.973 62.656V60.904H494.933V77.368ZM500.717 71.368C498.365 71.368 496.805 69.616 496.805 66.952C496.805 64.288 498.365 62.536 500.717 62.536C503.117 62.536 504.677 64.288 504.677 66.952C504.677 69.616 503.117 71.368 500.717 71.368ZM509.347 73H511.387V67.816C511.387 64.576 512.827 62.56 515.059 62.56C516.907 62.56 518.011 63.64 518.011 65.416V73H520.051V65.032C520.051 62.416 518.251 60.712 515.515 60.712C513.739 60.712 512.275 61.552 511.387 63.28V56.008H509.347V73ZM523.219 56.008V58.6H525.571V56.008H523.219ZM523.363 73H525.403V60.904H523.363V73ZM534.011 73.192C536.795 73.192 538.811 71.728 539.339 69.232L537.347 68.824C537.011 70.432 535.763 71.368 534.059 71.368C531.683 71.368 530.147 69.616 530.147 66.952C530.147 64.288 531.683 62.536 534.059 62.536C535.763 62.536 537.035 63.592 537.299 65.056L539.315 64.648C538.883 62.248 536.819 60.712 534.011 60.712C530.411 60.712 528.011 63.208 528.011 66.952C528.011 70.696 530.411 73.192 534.011 73.192ZM552.804 73.192C554.58 73.192 556.188 72.352 556.74 71.248V73H558.78V56.008H556.74V62.632C555.972 61.504 554.388 60.712 552.78 60.712C549.036 60.712 546.972 63.4 546.972 66.952C546.972 70.504 549.036 73.192 552.804 73.192ZM552.996 71.368C550.62 71.368 549.06 69.616 549.06 66.952C549.06 64.288 550.62 62.536 552.996 62.536C555.372 62.536 556.932 64.288 556.932 66.952C556.932 69.616 555.372 71.368 552.996 71.368ZM566.594 60.712C564.05 60.712 562.058 62.272 561.698 64.672L563.594 65.032C563.762 63.4 564.938 62.416 566.594 62.416C568.37 62.416 569.546 63.472 569.546 65.128V65.368L567.194 65.632C563.33 66.016 561.434 67.288 561.434 69.616C561.434 71.704 563.09 73.192 565.514 73.192C567.266 73.192 568.85 72.328 569.546 70.936V73H571.562V65.248C571.562 62.44 569.522 60.712 566.594 60.712ZM565.826 71.512C564.434 71.512 563.474 70.72 563.474 69.592C563.474 68.32 564.746 67.48 567.194 67.216L569.546 66.952V67.528C569.546 69.952 568.178 71.512 565.826 71.512ZM581.24 72.904L581.096 71.032C580.616 71.272 580.064 71.344 579.584 71.344C578.528 71.344 577.808 70.72 577.808 69.448V62.704H581.048V60.904H577.808V57.232H575.768V60.904H573.512V62.704H575.768V69.376C575.768 72.04 577.28 73.192 579.344 73.192C579.992 73.192 580.64 73.12 581.24 72.904ZM587.922 60.712C585.378 60.712 583.386 62.272 583.026 64.672L584.922 65.032C585.09 63.4 586.266 62.416 587.922 62.416C589.698 62.416 590.874 63.472 590.874 65.128V65.368L588.522 65.632C584.658 66.016 582.762 67.288 582.762 69.616C582.762 71.704 584.418 73.192 586.842 73.192C588.594 73.192 590.178 72.328 590.874 70.936V73H592.89V65.248C592.89 62.44 590.85 60.712 587.922 60.712ZM587.154 71.512C585.762 71.512 584.802 70.72 584.802 69.592C584.802 68.32 586.074 67.48 588.522 67.216L590.874 66.952V67.528C590.874 69.952 589.506 71.512 587.154 71.512Z" fill="#100024"/>
<rect x="28" y="284" width="262" height="52" rx="26" fill="#F6F5F9"/>
<path d="M65.0692 317H67.2532V302.144H72.5812V300.2H59.7172V302.144H65.0692V317ZM80.4899 306.896L80.6099 304.928C80.2019 304.784 79.7219 304.712 79.2179 304.712C77.7299 304.712 76.1459 305.816 75.4499 307.352V304.904H73.4099V317H75.4499V312.392C75.4499 308.456 77.0099 306.608 78.9299 306.608C79.4579 306.608 80.0339 306.704 80.4899 306.896ZM86.6875 304.712C84.1435 304.712 82.1515 306.272 81.7915 308.672L83.6875 309.032C83.8555 307.4 85.0315 306.416 86.6875 306.416C88.4635 306.416 89.6395 307.472 89.6395 309.128V309.368L87.2875 309.632C83.4235 310.016 81.5275 311.288 81.5275 313.616C81.5275 315.704 83.1835 317.192 85.6075 317.192C87.3595 317.192 88.9435 316.328 89.6395 314.936V317H91.6555V309.248C91.6555 306.44 89.6155 304.712 86.6875 304.712ZM85.9195 315.512C84.5275 315.512 83.5675 314.72 83.5675 313.592C83.5675 312.32 84.8395 311.48 87.2875 311.216L89.6395 310.952V311.528C89.6395 313.952 88.2715 315.512 85.9195 315.512ZM94.9724 317H97.0124V311.696C97.0124 308.504 98.4524 306.56 100.708 306.56C102.412 306.56 103.444 307.736 103.444 309.368V317H105.484V308.984C105.484 306.416 103.684 304.712 101.164 304.712C99.3164 304.712 97.8524 305.744 97.0124 307.184V304.904H94.9724V317ZM112.857 317.192C115.521 317.192 117.297 315.704 117.297 313.592C117.321 308.6 110.313 310.496 110.313 307.904C110.313 306.944 111.177 306.392 112.545 306.392C113.841 306.392 115.041 307.184 115.377 308.432L117.081 307.688C116.577 305.912 114.729 304.712 112.593 304.712C110.001 304.712 108.345 306.008 108.345 307.928C108.345 312.512 115.305 310.52 115.305 313.616C115.305 314.6 114.345 315.464 112.857 315.464C110.985 315.464 110.025 314.312 109.569 312.896L107.817 313.664C108.345 315.368 109.929 317.192 112.857 317.192ZM124.398 304.712C121.854 304.712 119.862 306.272 119.502 308.672L121.398 309.032C121.566 307.4 122.742 306.416 124.398 306.416C126.174 306.416 127.35 307.472 127.35 309.128V309.368L124.998 309.632C121.134 310.016 119.238 311.288 119.238 313.616C119.238 315.704 120.894 317.192 123.318 317.192C125.07 317.192 126.654 316.328 127.35 314.936V317H129.366V309.248C129.366 306.44 127.326 304.712 124.398 304.712ZM123.63 315.512C122.238 315.512 121.278 314.72 121.278 313.592C121.278 312.32 122.55 311.48 124.998 311.216L127.35 310.952V311.528C127.35 313.952 125.982 315.512 123.63 315.512ZM137.987 317.192C140.771 317.192 142.787 315.728 143.315 313.232L141.323 312.824C140.987 314.432 139.739 315.368 138.035 315.368C135.659 315.368 134.123 313.616 134.123 310.952C134.123 308.288 135.659 306.536 138.035 306.536C139.739 306.536 141.011 307.592 141.275 309.056L143.291 308.648C142.859 306.248 140.795 304.712 137.987 304.712C134.387 304.712 131.987 307.208 131.987 310.952C131.987 314.696 134.387 317.192 137.987 317.192ZM152.123 316.904L151.979 315.032C151.499 315.272 150.947 315.344 150.467 315.344C149.411 315.344 148.691 314.72 148.691 313.448V306.704H151.931V304.904H148.691V301.232H146.651V304.904H144.395V306.704H146.651V313.376C146.651 316.04 148.163 317.192 150.227 317.192C150.875 317.192 151.523 317.12 152.123 316.904ZM154.36 300.008V302.6H156.712V300.008H154.36ZM154.504 317H156.544V304.904H154.504V317ZM165.295 317.192C168.871 317.192 171.463 314.576 171.463 310.952C171.463 307.328 168.871 304.712 165.295 304.712C161.695 304.712 159.151 307.328 159.151 310.952C159.151 314.576 161.695 317.192 165.295 317.192ZM165.295 315.368C162.871 315.368 161.239 313.544 161.239 310.952C161.239 308.36 162.871 306.536 165.295 306.536C167.719 306.536 169.351 308.36 169.351 310.952C169.351 313.544 167.719 315.368 165.295 315.368ZM174.074 317H176.114V311.696C176.114 308.504 177.554 306.56 179.81 306.56C181.514 306.56 182.546 307.736 182.546 309.368V317H184.586V308.984C184.586 306.416 182.786 304.712 180.266 304.712C178.418 304.712 176.954 305.744 176.114 307.184V304.904H174.074V317ZM192.414 304.712C189.87 304.712 187.878 306.272 187.518 308.672L189.414 309.032C189.582 307.4 190.758 306.416 192.414 306.416C194.19 306.416 195.366 307.472 195.366 309.128V309.368L193.014 309.632C189.15 310.016 187.254 311.288 187.254 313.616C187.254 315.704 188.91 317.192 191.334 317.192C193.086 317.192 194.67 316.328 195.366 314.936V317H197.382V309.248C197.382 306.44 195.342 304.712 192.414 304.712ZM191.646 315.512C190.254 315.512 189.294 314.72 189.294 313.592C189.294 312.32 190.566 311.48 193.014 311.216L195.366 310.952V311.528C195.366 313.952 193.998 315.512 191.646 315.512ZM200.699 317H202.739V300.008H200.699V317ZM216.968 317.192C218.744 317.192 220.352 316.352 220.904 315.248V317H222.944V300.008H220.904V306.632C220.136 305.504 218.552 304.712 216.944 304.712C213.2 304.712 211.136 307.4 211.136 310.952C211.136 314.504 213.2 317.192 216.968 317.192ZM217.16 315.368C214.784 315.368 213.224 313.616 213.224 310.952C213.224 308.288 214.784 306.536 217.16 306.536C219.536 306.536 221.096 308.288 221.096 310.952C221.096 313.616 219.536 315.368 217.16 315.368ZM230.758 304.712C228.214 304.712 226.222 306.272 225.862 308.672L227.758 309.032C227.926 307.4 229.102 306.416 230.758 306.416C232.534 306.416 233.71 307.472 233.71 309.128V309.368L231.358 309.632C227.494 310.016 225.598 311.288 225.598 313.616C225.598 315.704 227.254 317.192 229.678 317.192C231.43 317.192 233.014 316.328 233.71 314.936V317H235.726V309.248C235.726 306.44 233.686 304.712 230.758 304.712ZM229.99 315.512C228.598 315.512 227.638 314.72 227.638 313.592C227.638 312.32 228.91 311.48 231.358 311.216L233.71 310.952V311.528C233.71 313.952 232.342 315.512 229.99 315.512ZM245.404 316.904L245.26 315.032C244.78 315.272 244.228 315.344 243.748 315.344C242.692 315.344 241.972 314.72 241.972 313.448V306.704H245.212V304.904H241.972V301.232H239.932V304.904H237.676V306.704H239.932V313.376C239.932 316.04 241.444 317.192 243.508 317.192C244.156 317.192 244.804 317.12 245.404 316.904ZM252.086 304.712C249.542 304.712 247.55 306.272 247.19 308.672L249.086 309.032C249.254 307.4 250.43 306.416 252.086 306.416C253.862 306.416 255.038 307.472 255.038 309.128V309.368L252.686 309.632C248.822 310.016 246.926 311.288 246.926 313.616C246.926 315.704 248.582 317.192 251.006 317.192C252.758 317.192 254.342 316.328 255.038 314.936V317H257.054V309.248C257.054 306.44 255.014 304.712 252.086 304.712ZM251.318 315.512C249.926 315.512 248.966 314.72 248.966 313.592C248.966 312.32 250.238 311.48 252.686 311.216L255.038 310.952V311.528C255.038 313.952 253.67 315.512 251.318 315.512Z" fill="#100024"/>
<rect y="149" width="198" height="52" rx="26" fill="#F6F5F9"/>
<path d="M46.4433 182.192C50.1153 182.192 52.5393 180.32 52.5393 177.464C52.5393 170.744 42.9393 173.24 42.9393 169.4C42.9393 167.888 44.2353 166.952 46.3953 166.952C48.5073 166.952 49.9473 168.104 50.2833 169.928L52.2753 169.16C51.8433 166.664 49.4673 165.008 46.3953 165.008C43.0833 165.008 40.7313 166.784 40.7313 169.4C40.7313 175.352 50.2833 173 50.2833 177.488C50.2833 179.168 48.7953 180.248 46.4913 180.248C44.2593 180.248 42.4593 178.712 42.1233 176.36L40.0593 177.032C40.6113 180.104 43.2033 182.192 46.4433 182.192ZM60.5298 182.192C64.1058 182.192 66.6978 179.576 66.6978 175.952C66.6978 172.328 64.1058 169.712 60.5298 169.712C56.9298 169.712 54.3858 172.328 54.3858 175.952C54.3858 179.576 56.9298 182.192 60.5298 182.192ZM60.5298 180.368C58.1058 180.368 56.4738 178.544 56.4738 175.952C56.4738 173.36 58.1058 171.536 60.5298 171.536C62.9538 171.536 64.5858 173.36 64.5858 175.952C64.5858 178.544 62.9538 180.368 60.5298 180.368ZM74.6123 182.192C77.3963 182.192 79.4123 180.728 79.9403 178.232L77.9483 177.824C77.6123 179.432 76.3643 180.368 74.6603 180.368C72.2843 180.368 70.7483 178.616 70.7483 175.952C70.7483 173.288 72.2843 171.536 74.6603 171.536C76.3643 171.536 77.6363 172.592 77.9003 174.056L79.9163 173.648C79.4843 171.248 77.4203 169.712 74.6123 169.712C71.0123 169.712 68.6123 172.208 68.6123 175.952C68.6123 179.696 71.0123 182.192 74.6123 182.192ZM82.3362 165.008V167.6H84.6882V165.008H82.3362ZM82.4802 182H84.5202V169.904H82.4802V182ZM92.336 169.712C89.792 169.712 87.8 171.272 87.44 173.672L89.336 174.032C89.504 172.4 90.68 171.416 92.336 171.416C94.112 171.416 95.288 172.472 95.288 174.128V174.368L92.936 174.632C89.072 175.016 87.176 176.288 87.176 178.616C87.176 180.704 88.832 182.192 91.256 182.192C93.008 182.192 94.592 181.328 95.288 179.936V182H97.304V174.248C97.304 171.44 95.264 169.712 92.336 169.712ZM91.568 180.512C90.176 180.512 89.216 179.72 89.216 178.592C89.216 177.32 90.488 176.48 92.936 176.216L95.288 175.952V176.528C95.288 178.952 93.92 180.512 91.568 180.512ZM100.621 182H102.661V165.008H100.621V182ZM116.89 182.192C118.666 182.192 120.274 181.352 120.826 180.248V182H122.866V165.008H120.826V171.632C120.058 170.504 118.474 169.712 116.866 169.712C113.122 169.712 111.058 172.4 111.058 175.952C111.058 179.504 113.122 182.192 116.89 182.192ZM117.082 180.368C114.706 180.368 113.146 178.616 113.146 175.952C113.146 173.288 114.706 171.536 117.082 171.536C119.458 171.536 121.018 173.288 121.018 175.952C121.018 178.616 119.458 180.368 117.082 180.368ZM130.68 169.712C128.136 169.712 126.144 171.272 125.784 173.672L127.68 174.032C127.848 172.4 129.024 171.416 130.68 171.416C132.456 171.416 133.632 172.472 133.632 174.128V174.368L131.28 174.632C127.416 175.016 125.52 176.288 125.52 178.616C125.52 180.704 127.176 182.192 129.6 182.192C131.352 182.192 132.936 181.328 133.632 179.936V182H135.648V174.248C135.648 171.44 133.608 169.712 130.68 169.712ZM129.912 180.512C128.52 180.512 127.56 179.72 127.56 178.592C127.56 177.32 128.832 176.48 131.28 176.216L133.632 175.952V176.528C133.632 178.952 132.264 180.512 129.912 180.512ZM145.326 181.904L145.182 180.032C144.702 180.272 144.15 180.344 143.67 180.344C142.614 180.344 141.894 179.72 141.894 178.448V171.704H145.134V169.904H141.894V166.232H139.854V169.904H137.598V171.704H139.854V178.376C139.854 181.04 141.366 182.192 143.43 182.192C144.078 182.192 144.726 182.12 145.326 181.904ZM152.008 169.712C149.464 169.712 147.472 171.272 147.112 173.672L149.008 174.032C149.176 172.4 150.352 171.416 152.008 171.416C153.784 171.416 154.96 172.472 154.96 174.128V174.368L152.608 174.632C148.744 175.016 146.848 176.288 146.848 178.616C146.848 180.704 148.504 182.192 150.928 182.192C152.68 182.192 154.264 181.328 154.96 179.936V182H156.976V174.248C156.976 171.44 154.936 169.712 152.008 169.712ZM151.24 180.512C149.848 180.512 148.888 179.72 148.888 178.592C148.888 177.32 150.16 176.48 152.608 176.216L154.96 175.952V176.528C154.96 178.952 153.592 180.512 151.24 180.512Z" fill="#100024"/>
<rect x="357" y="279" width="275" height="52" rx="26" fill="#F6F5F9"/>
<path d="M395.199 312.192C398.823 312.192 401.439 310.176 402.279 307.008L400.095 306.552C399.495 308.88 397.791 310.224 395.175 310.224C391.767 310.224 389.295 307.896 389.295 303.6C389.295 299.304 391.767 296.952 395.175 296.952C397.791 296.952 399.591 298.368 400.119 300.792L402.279 300.312C401.583 297.072 398.871 295.008 395.199 295.008C390.999 295.008 387.039 297.816 387.039 303.6C387.039 309.384 390.975 312.192 395.199 312.192ZM410.292 312.192C413.868 312.192 416.46 309.576 416.46 305.952C416.46 302.328 413.868 299.712 410.292 299.712C406.692 299.712 404.148 302.328 404.148 305.952C404.148 309.576 406.692 312.192 410.292 312.192ZM410.292 310.368C407.868 310.368 406.236 308.544 406.236 305.952C406.236 303.36 407.868 301.536 410.292 301.536C412.716 301.536 414.348 303.36 414.348 305.952C414.348 308.544 412.716 310.368 410.292 310.368ZM419.07 312H421.11V306.696C421.11 303.504 422.55 301.56 424.806 301.56C426.51 301.56 427.542 302.736 427.542 304.368V312H429.582V303.984C429.582 301.416 427.782 299.712 425.262 299.712C423.414 299.712 421.95 300.744 421.11 302.184V299.904H419.07V312ZM435.572 312H437.66L442.1 299.904H439.988L436.604 309.624L433.244 299.904H431.156L435.572 312ZM454.623 305.4C454.623 302.28 452.415 299.712 448.839 299.712C445.191 299.712 442.983 302.52 442.983 305.952C442.983 309.384 445.263 312.192 448.887 312.192C451.671 312.192 453.687 310.824 454.287 308.472L452.367 308.016C452.007 309.528 450.735 310.392 448.887 310.392C446.703 310.392 445.167 308.784 445.023 306.336H454.575C454.599 306.12 454.623 305.688 454.623 305.4ZM445.143 304.632C445.551 302.616 446.943 301.416 448.839 301.416C450.975 301.416 452.271 302.784 452.463 304.632H445.143ZM464.33 301.896L464.45 299.928C464.042 299.784 463.562 299.712 463.058 299.712C461.57 299.712 459.986 300.816 459.29 302.352V299.904H457.25V312H459.29V307.392C459.29 303.456 460.85 301.608 462.77 301.608C463.298 301.608 463.874 301.704 464.33 301.896ZM470.165 312.192C472.829 312.192 474.605 310.704 474.605 308.592C474.629 303.6 467.621 305.496 467.621 302.904C467.621 301.944 468.485 301.392 469.853 301.392C471.149 301.392 472.349 302.184 472.685 303.432L474.389 302.688C473.885 300.912 472.037 299.712 469.901 299.712C467.309 299.712 465.653 301.008 465.653 302.928C465.653 307.512 472.613 305.52 472.613 308.616C472.613 309.6 471.653 310.464 470.165 310.464C468.293 310.464 467.333 309.312 466.877 307.896L465.125 308.664C465.653 310.368 467.237 312.192 470.165 312.192ZM481.707 299.712C479.163 299.712 477.171 301.272 476.811 303.672L478.707 304.032C478.875 302.4 480.051 301.416 481.707 301.416C483.483 301.416 484.659 302.472 484.659 304.128V304.368L482.307 304.632C478.443 305.016 476.547 306.288 476.547 308.616C476.547 310.704 478.203 312.192 480.627 312.192C482.379 312.192 483.963 311.328 484.659 309.936V312H486.675V304.248C486.675 301.44 484.635 299.712 481.707 299.712ZM480.939 310.512C479.547 310.512 478.587 309.72 478.587 308.592C478.587 307.32 479.859 306.48 482.307 306.216L484.659 305.952V306.528C484.659 308.952 483.291 310.512 480.939 310.512ZM496.354 311.904L496.21 310.032C495.73 310.272 495.178 310.344 494.698 310.344C493.642 310.344 492.922 309.72 492.922 308.448V301.704H496.162V299.904H492.922V296.232H490.882V299.904H488.626V301.704H490.882V308.376C490.882 311.04 492.394 312.192 494.458 312.192C495.106 312.192 495.754 312.12 496.354 311.904ZM498.59 295.008V297.6H500.942V295.008H498.59ZM498.734 312H500.774V299.904H498.734V312ZM509.526 312.192C513.102 312.192 515.694 309.576 515.694 305.952C515.694 302.328 513.102 299.712 509.526 299.712C505.926 299.712 503.382 302.328 503.382 305.952C503.382 309.576 505.926 312.192 509.526 312.192ZM509.526 310.368C507.102 310.368 505.47 308.544 505.47 305.952C505.47 303.36 507.102 301.536 509.526 301.536C511.95 301.536 513.582 303.36 513.582 305.952C513.582 308.544 511.95 310.368 509.526 310.368ZM518.304 312H520.344V306.696C520.344 303.504 521.784 301.56 524.04 301.56C525.744 301.56 526.776 302.736 526.776 304.368V312H528.816V303.984C528.816 301.416 527.016 299.712 524.496 299.712C522.648 299.712 521.184 300.744 520.344 302.184V299.904H518.304V312ZM536.645 299.712C534.101 299.712 532.109 301.272 531.749 303.672L533.645 304.032C533.813 302.4 534.989 301.416 536.645 301.416C538.421 301.416 539.597 302.472 539.597 304.128V304.368L537.245 304.632C533.381 305.016 531.485 306.288 531.485 308.616C531.485 310.704 533.141 312.192 535.565 312.192C537.317 312.192 538.901 311.328 539.597 309.936V312H541.613V304.248C541.613 301.44 539.573 299.712 536.645 299.712ZM535.877 310.512C534.485 310.512 533.525 309.72 533.525 308.592C533.525 307.32 534.797 306.48 537.245 306.216L539.597 305.952V306.528C539.597 308.952 538.229 310.512 535.877 310.512ZM544.929 312H546.969V295.008H544.929V312ZM561.198 312.192C562.974 312.192 564.582 311.352 565.134 310.248V312H567.174V295.008H565.134V301.632C564.366 300.504 562.782 299.712 561.174 299.712C557.43 299.712 555.366 302.4 555.366 305.952C555.366 309.504 557.43 312.192 561.198 312.192ZM561.39 310.368C559.014 310.368 557.454 308.616 557.454 305.952C557.454 303.288 559.014 301.536 561.39 301.536C563.766 301.536 565.326 303.288 565.326 305.952C565.326 308.616 563.766 310.368 561.39 310.368ZM574.988 299.712C572.444 299.712 570.452 301.272 570.092 303.672L571.988 304.032C572.156 302.4 573.332 301.416 574.988 301.416C576.764 301.416 577.94 302.472 577.94 304.128V304.368L575.588 304.632C571.724 305.016 569.828 306.288 569.828 308.616C569.828 310.704 571.484 312.192 573.908 312.192C575.66 312.192 577.244 311.328 577.94 309.936V312H579.956V304.248C579.956 301.44 577.916 299.712 574.988 299.712ZM574.22 310.512C572.828 310.512 571.868 309.72 571.868 308.592C571.868 307.32 573.14 306.48 575.588 306.216L577.94 305.952V306.528C577.94 308.952 576.572 310.512 574.22 310.512ZM589.635 311.904L589.491 310.032C589.011 310.272 588.459 310.344 587.979 310.344C586.923 310.344 586.203 309.72 586.203 308.448V301.704H589.443V299.904H586.203V296.232H584.163V299.904H581.907V301.704H584.163V308.376C584.163 311.04 585.675 312.192 587.739 312.192C588.387 312.192 589.035 312.12 589.635 311.904ZM596.316 299.712C593.772 299.712 591.78 301.272 591.42 303.672L593.316 304.032C593.484 302.4 594.66 301.416 596.316 301.416C598.092 301.416 599.268 302.472 599.268 304.128V304.368L596.916 304.632C593.052 305.016 591.156 306.288 591.156 308.616C591.156 310.704 592.812 312.192 595.236 312.192C596.988 312.192 598.572 311.328 599.268 309.936V312H601.284V304.248C601.284 301.44 599.244 299.712 596.316 299.712ZM595.548 310.512C594.156 310.512 593.196 309.72 593.196 308.592C593.196 307.32 594.468 306.48 596.916 306.216L599.268 305.952V306.528C599.268 308.952 597.9 310.512 595.548 310.512Z" fill="#100024"/>
<defs>
<linearGradient id="paint0_linear_127_122" x1="346.728" y1="199.725" x2="312.211" y2="285.315" gradientUnits="userSpaceOnUse">
<stop offset="0.17" stop-color="#100024"/>
<stop offset="0.76" stop-color="#CBB4F6"/>
<stop offset="1" stop-color="#D2BAFD"/>
</linearGradient>
<radialGradient id="paint1_radial_127_122" cx="0" cy="0" r="1" gradientUnits="userSpaceOnUse" gradientTransform="translate(282.948 263.312) scale(88.3364 89.4534)">
<stop stop-color="#FFCAB9"/>
<stop offset="1" stop-color="#D2B8FF" stop-opacity="0"/>
</radialGradient>
<radialGradient id="paint2_radial_127_122" cx="0" cy="0" r="1" gradientUnits="userSpaceOnUse" gradientTransform="translate(288.804 306.757) scale(212.424 215.11)">
<stop stop-color="#FFCAB9"/>
<stop offset="1" stop-color="#D2B8FF" stop-opacity="0"/>
</radialGradient>
<linearGradient id="paint3_linear_127_122" x1="412.148" y1="455.525" x2="360.8" y2="400.752" gradientUnits="userSpaceOnUse">
<stop stop-color="#1B2038"/>
<stop offset="0.24" stop-color="#313250" stop-opacity="0.88"/>
<stop offset="0.59" stop-color="#6E6692" stop-opacity="0.55"/>
<stop offset="1" stop-color="#D2BAFD" stop-opacity="0"/>
</linearGradient>
<linearGradient id="paint4_linear_127_122" x1="378.491" y1="205.857" x2="267.203" y2="166.12" gradientUnits="userSpaceOnUse">
<stop offset="0.17" stop-color="#100024"/>
<stop offset="0.65" stop-color="#D2BAFD"/>
</linearGradient>
<radialGradient id="paint5_radial_127_122" cx="0" cy="0" r="1" gradientUnits="userSpaceOnUse" gradientTransform="translate(283.017 205.512) scale(72.3184 73.2328)">
<stop stop-color="#FFCAB9"/>
<stop offset="1" stop-color="#C2ACFF" stop-opacity="0"/>
</radialGradient>
<radialGradient id="paint6_radial_127_122" cx="0" cy="0" r="1" gradientUnits="userSpaceOnUse" gradientTransform="translate(310.791 139.47) scale(104.988 106.315)">
<stop offset="0.17" stop-color="#100024"/>
<stop offset="1" stop-color="#63537E"/>
</radialGradient>
<linearGradient id="paint7_linear_127_122" x1="373.826" y1="217.035" x2="318.653" y2="78.173" gradientUnits="userSpaceOnUse">
<stop offset="0.17" stop-color="#100024"/>
<stop offset="0.65" stop-color="#D2BAFD"/>
</linearGradient>
<clipPath id="clip0_127_122">
<path d="M165 147C165 65.8141 230.814 0 312 0V0C393.186 0 459 65.8141 459 147V371H165V147Z" fill="white"/>
</clipPath>
</defs>
</svg>
