<svg width="136" height="31" viewBox="0 0 136 31" fill="none" xmlns="http://www.w3.org/2000/svg">
<mask id="mask0_126_75" style="mask-type:alpha" maskUnits="userSpaceOnUse" x="0" y="0" width="28" height="29">
<circle cx="13.6719" cy="14.5" r="13.6719" fill="#100024"/>
</mask>
<g mask="url(#mask0_126_75)">
<path fill-rule="evenodd" clip-rule="evenodd" d="M8.61222 1.79486C9.16928 1.57282 9.74438 1.38636 10.3347 1.23828V27.7617C9.74438 27.6136 9.16928 27.4271 8.61222 27.2051V1.79486ZM27.3438 14.5C27.3438 22.0148 21.2808 28.1135 13.7796 28.1714V20.5852C15.3548 20.5574 16.8595 19.9195 17.9755 18.8036C19.1168 17.6622 19.7581 16.1142 19.7581 14.5C19.7581 12.8858 19.1168 11.3378 17.9755 10.1964C16.8595 9.08044 15.3548 8.44261 13.7796 8.41476V0.828506C21.2808 0.886394 27.3438 6.98514 27.3438 14.5ZM5.81325 3.31097C5.20014 3.74238 4.62409 4.22291 4.09081 4.74684V24.2531C4.62409 24.777 5.20014 25.2576 5.81325 25.689V3.31097ZM0 14.5C0 11.9332 0.707352 9.53155 1.93776 7.47946V21.5205C0.707352 19.4684 0 17.0668 0 14.5Z" fill="white"/>
</g>
<path d="M43.1979 24.208C48.4499 24.208 52.2979 20.282 52.2979 14.9C52.2979 9.518 48.4499 5.592 43.1979 5.592C37.9459 5.592 34.0979 9.518 34.0979 14.9C34.0979 20.282 37.9459 24.208 43.1979 24.208ZM43.1979 21.53C39.6879 21.53 37.1659 18.748 37.1659 14.9C37.1659 11.052 39.6879 8.244 43.1979 8.244C46.7079 8.244 49.2299 11.052 49.2299 14.9C49.2299 18.748 46.7079 21.53 43.1979 21.53ZM54.1794 28.732H57.0134V22.492C57.8194 23.532 59.3534 24.208 60.9394 24.208C64.8654 24.208 67.2574 21.4 67.2574 17.448C67.2574 13.496 64.9694 10.688 61.0954 10.688C59.2754 10.688 57.7414 11.494 57.0134 12.56V10.896H54.1794V28.732ZM60.6274 21.738C58.3394 21.738 56.8314 20.022 56.8314 17.448C56.8314 14.848 58.3394 13.158 60.6274 13.158C62.9154 13.158 64.4234 14.848 64.4234 17.448C64.4234 20.022 62.9154 21.738 60.6274 21.738ZM81.2328 16.954C81.2328 13.756 78.9968 10.688 74.7848 10.688C70.6248 10.688 68.3888 13.912 68.3888 17.448C68.3888 20.984 70.7548 24.208 74.9148 24.208C77.9828 24.208 80.2188 22.752 80.9208 20.23L78.2428 19.554C77.9048 20.984 76.6828 21.79 74.9668 21.79C72.8868 21.79 71.4308 20.386 71.1708 18.124H81.1808C81.2068 17.89 81.2328 17.344 81.2328 16.954ZM71.3008 15.966C71.7168 14.016 72.9908 12.924 74.7848 12.924C76.8648 12.924 78.0348 14.198 78.2168 15.966H71.3008ZM83.0882 24H85.9222V18.254C85.9222 15.108 87.2482 13.236 89.4582 13.236C91.1222 13.236 92.1362 14.38 92.1362 16.018V24H94.9702V15.368C94.9702 12.534 93.0202 10.688 90.2382 10.688C88.3142 10.688 86.8062 11.676 85.9222 13.08V10.896H83.0882V24ZM97.5172 24H100.351V5.592H97.5172V24ZM104.336 8.712C105.402 8.712 106.208 7.906 106.208 6.892C106.208 5.852 105.402 5.046 104.336 5.046C103.296 5.046 102.516 5.852 102.516 6.892C102.516 7.906 103.296 8.712 104.336 8.712ZM102.932 24H105.766V10.896H102.932V24ZM108.348 24H111.182V18.254C111.182 15.108 112.508 13.236 114.718 13.236C116.382 13.236 117.396 14.38 117.396 16.018V24H120.23V15.368C120.23 12.534 118.28 10.688 115.498 10.688C113.574 10.688 112.066 11.676 111.182 13.08V10.896H108.348V24ZM134.919 16.954C134.919 13.756 132.683 10.688 128.471 10.688C124.311 10.688 122.075 13.912 122.075 17.448C122.075 20.984 124.441 24.208 128.601 24.208C131.669 24.208 133.905 22.752 134.607 20.23L131.929 19.554C131.591 20.984 130.369 21.79 128.653 21.79C126.573 21.79 125.117 20.386 124.857 18.124H134.867C134.893 17.89 134.919 17.344 134.919 16.954ZM124.987 15.966C125.403 14.016 126.677 12.924 128.471 12.924C130.551 12.924 131.721 14.198 131.903 15.966H124.987Z" fill="white"/>
</svg>
