<svg width="557" height="396" viewBox="0 0 557 396" fill="none" xmlns="http://www.w3.org/2000/svg">
<g clip-path="url(#clip0_638_294)">
<rect width="557" height="396" rx="8" fill="#F6F5F9"/>
<path opacity="0.8" d="M0 310.963L94.5 298.585L173.5 230.771L311 217.316L381 148.425L476 160.804L515 97.2957L557 72V388C557 392.418 553.418 396 549 396H7.99999C3.58171 396 0 392.418 0 388L0 310.963Z" fill="url(#paint0_linear_638_294)"/>
<path d="M0 310L95.4424 298.158L175.23 230.872L311.072 218.491L381.265 147.975L475.192 160.894L515.086 97.9144L557 71" stroke="#B198F8" stroke-width="2"/>
<g filter="url(#filter0_dd_638_294)">
<rect x="59" y="192" width="224" height="59" rx="8" fill="white"/>
<path d="M116.46 229H118.24V217.9L125.3 229H127.32V215H125.54V226.14L118.48 215H116.46V229ZM138.789 223.5C138.789 220.9 136.949 218.76 133.969 218.76C130.929 218.76 129.089 221.1 129.089 223.96C129.089 226.82 130.989 229.16 134.009 229.16C136.329 229.16 138.009 228.02 138.509 226.06L136.909 225.68C136.609 226.94 135.549 227.66 134.009 227.66C132.189 227.66 130.909 226.32 130.789 224.28H138.749C138.769 224.1 138.789 223.74 138.789 223.5ZM130.889 222.86C131.229 221.18 132.389 220.18 133.969 220.18C135.749 220.18 136.829 221.32 136.989 222.86H130.889ZM142.464 229H144.124L146.484 221.34L148.844 229H150.504L153.604 218.92H151.824L149.664 226.62L147.304 218.92H145.664L143.304 226.62L141.124 218.92H139.384L142.464 229ZM163.741 229.16C166.061 229.16 167.741 227.94 168.181 225.86L166.521 225.52C166.241 226.86 165.201 227.64 163.781 227.64C161.801 227.64 160.521 226.18 160.521 223.96C160.521 221.74 161.801 220.28 163.781 220.28C165.201 220.28 166.261 221.16 166.481 222.38L168.161 222.04C167.801 220.04 166.081 218.76 163.741 218.76C160.741 218.76 158.741 220.84 158.741 223.96C158.741 227.08 160.741 229.16 163.741 229.16ZM174.338 229.16C177.318 229.16 179.478 226.98 179.478 223.96C179.478 220.94 177.318 218.76 174.338 218.76C171.338 218.76 169.218 220.94 169.218 223.96C169.218 226.98 171.338 229.16 174.338 229.16ZM174.338 227.64C172.318 227.64 170.958 226.12 170.958 223.96C170.958 221.8 172.318 220.28 174.338 220.28C176.358 220.28 177.718 221.8 177.718 223.96C177.718 226.12 176.358 227.64 174.338 227.64ZM181.153 229H182.853V224.58C182.853 221.92 184.053 220.3 185.933 220.3C187.353 220.3 188.213 221.28 188.213 222.64V229H189.913V222.32C189.913 220.18 188.413 218.76 186.313 218.76C184.773 218.76 183.553 219.62 182.853 220.82V218.92H181.153V229ZM192.177 229H193.877V224.58C193.877 221.92 195.077 220.3 196.957 220.3C198.377 220.3 199.237 221.28 199.237 222.64V229H200.937V222.32C200.937 220.18 199.437 218.76 197.337 218.76C195.797 218.76 194.577 219.62 193.877 220.82V218.92H192.177V229ZM212.32 223.5C212.32 220.9 210.48 218.76 207.5 218.76C204.46 218.76 202.62 221.1 202.62 223.96C202.62 226.82 204.52 229.16 207.54 229.16C209.86 229.16 211.54 228.02 212.04 226.06L210.44 225.68C210.14 226.94 209.08 227.66 207.54 227.66C205.72 227.66 204.44 226.32 204.32 224.28H212.28C212.3 224.1 212.32 223.74 212.32 223.5ZM204.42 222.86C204.76 221.18 205.92 220.18 207.5 220.18C209.28 220.18 210.36 221.32 210.52 222.86H204.42ZM218.429 229.16C220.749 229.16 222.429 227.94 222.869 225.86L221.209 225.52C220.929 226.86 219.889 227.64 218.469 227.64C216.489 227.64 215.209 226.18 215.209 223.96C215.209 221.74 216.489 220.28 218.469 220.28C219.889 220.28 220.949 221.16 221.169 222.38L222.849 222.04C222.489 220.04 220.769 218.76 218.429 218.76C215.429 218.76 213.429 220.84 213.429 223.96C213.429 227.08 215.429 229.16 218.429 229.16ZM229.709 228.92L229.589 227.36C229.189 227.56 228.729 227.62 228.329 227.62C227.449 227.62 226.849 227.1 226.849 226.04V220.42H229.549V218.92H226.849V215.86H225.149V218.92H223.269V220.42H225.149V225.98C225.149 228.2 226.409 229.16 228.129 229.16C228.669 229.16 229.209 229.1 229.709 228.92ZM231.073 214.84V217H233.033V214.84H231.073ZM231.193 229H232.893V218.92H231.193V229ZM239.686 229.16C242.666 229.16 244.826 226.98 244.826 223.96C244.826 220.94 242.666 218.76 239.686 218.76C236.686 218.76 234.566 220.94 234.566 223.96C234.566 226.98 236.686 229.16 239.686 229.16ZM239.686 227.64C237.666 227.64 236.306 226.12 236.306 223.96C236.306 221.8 237.666 220.28 239.686 220.28C241.706 220.28 243.066 221.8 243.066 223.96C243.066 226.12 241.706 227.64 239.686 227.64ZM246.501 229H248.201V224.58C248.201 221.92 249.401 220.3 251.281 220.3C252.701 220.3 253.561 221.28 253.561 222.64V229H255.261V222.32C255.261 220.18 253.761 218.76 251.661 218.76C250.121 218.76 248.901 219.62 248.201 220.82V218.92H246.501V229Z" fill="#100024" fill-opacity="0.55"/>
<path d="M91.6571 225.715V217.405H84.7049L81.4275 214.129H94.9388V220.302H97.0059V212.062H78V220.302H80.0671V215.692L83.3445 218.968V225.715H91.6571ZM85.4116 219.472H89.5855V223.644H85.4116V219.472Z" fill="#A16AFF"/>
<path d="M78 222.819V231.063H97.0059V222.819H94.9344V228.992H80.0671V222.819H78Z" fill="#A16AFF"/>
</g>
<g filter="url(#filter1_dd_638_294)">
<rect x="197" y="105" width="226" height="59" rx="8" fill="white"/>
<path d="M257.46 141H259.28V134.54H265.12V132.9H259.28V128.62H266.42V127H257.46V141ZM271.303 141.16C274.283 141.16 276.443 138.98 276.443 135.96C276.443 132.94 274.283 130.76 271.303 130.76C268.303 130.76 266.183 132.94 266.183 135.96C266.183 138.98 268.303 141.16 271.303 141.16ZM271.303 139.64C269.283 139.64 267.923 138.12 267.923 135.96C267.923 133.8 269.283 132.28 271.303 132.28C273.323 132.28 274.683 133.8 274.683 135.96C274.683 138.12 273.323 139.64 271.303 139.64ZM284.018 132.58L284.118 130.94C283.778 130.82 283.378 130.76 282.958 130.76C281.718 130.76 280.398 131.68 279.818 132.96V130.92H278.118V141H279.818V137.16C279.818 133.88 281.118 132.34 282.718 132.34C283.158 132.34 283.638 132.42 284.018 132.58ZM285.275 141H286.975V135.94C286.975 133.8 287.915 132.26 289.635 132.26C291.035 132.26 291.815 133.2 291.815 134.58V141H293.515V135.94C293.515 133.8 294.455 132.26 296.175 132.26C297.595 132.26 298.375 133.2 298.375 134.58V141H300.075V134.24C300.075 132.12 298.715 130.76 296.555 130.76C295.035 130.76 293.835 131.68 293.295 132.88C292.935 131.52 291.655 130.76 290.015 130.76C288.475 130.76 287.475 131.62 286.975 132.82V130.92H285.275V141ZM306.537 126.84V129H308.497V126.84H306.537ZM306.657 141H308.357V130.92H306.657V141ZM310.61 141H312.31V136.58C312.31 133.92 313.51 132.3 315.39 132.3C316.81 132.3 317.67 133.28 317.67 134.64V141H319.37V134.32C319.37 132.18 317.87 130.76 315.77 130.76C314.23 130.76 313.01 131.62 312.31 132.82V130.92H310.61V141ZM326.623 140.92L326.503 139.36C326.103 139.56 325.643 139.62 325.243 139.62C324.363 139.62 323.763 139.1 323.763 138.04V132.42H326.463V130.92H323.763V127.86H322.063V130.92H320.183V132.42H322.063V137.98C322.063 140.2 323.323 141.16 325.043 141.16C325.583 141.16 326.123 141.1 326.623 140.92ZM336.973 135.5C336.973 132.9 335.133 130.76 332.153 130.76C329.113 130.76 327.273 133.1 327.273 135.96C327.273 138.82 329.173 141.16 332.193 141.16C334.513 141.16 336.193 140.02 336.693 138.06L335.093 137.68C334.793 138.94 333.733 139.66 332.193 139.66C330.373 139.66 329.093 138.32 328.973 136.28H336.933C336.953 136.1 336.973 135.74 336.973 135.5ZM329.073 134.86C329.413 133.18 330.573 132.18 332.153 132.18C333.933 132.18 335.013 133.32 335.173 134.86H329.073ZM344.561 132.58L344.661 130.94C344.321 130.82 343.921 130.76 343.501 130.76C342.261 130.76 340.941 131.68 340.361 132.96V130.92H338.661V141H340.361V137.16C340.361 133.88 341.661 132.34 343.261 132.34C343.701 132.34 344.181 132.42 344.561 132.58ZM349.226 130.76C347.106 130.76 345.446 132.06 345.146 134.06L346.726 134.36C346.866 133 347.846 132.18 349.226 132.18C350.706 132.18 351.686 133.06 351.686 134.44V134.64L349.726 134.86C346.506 135.18 344.926 136.24 344.926 138.18C344.926 139.92 346.306 141.16 348.326 141.16C349.786 141.16 351.106 140.44 351.686 139.28V141H353.366V134.54C353.366 132.2 351.666 130.76 349.226 130.76ZM348.586 139.76C347.426 139.76 346.626 139.1 346.626 138.16C346.626 137.1 347.686 136.4 349.726 136.18L351.686 135.96V136.44C351.686 138.46 350.546 139.76 348.586 139.76ZM360.05 141.16C362.37 141.16 364.05 139.94 364.49 137.86L362.83 137.52C362.55 138.86 361.51 139.64 360.09 139.64C358.11 139.64 356.83 138.18 356.83 135.96C356.83 133.74 358.11 132.28 360.09 132.28C361.51 132.28 362.57 133.16 362.79 134.38L364.47 134.04C364.11 132.04 362.39 130.76 360.05 130.76C357.05 130.76 355.05 132.84 355.05 135.96C355.05 139.08 357.05 141.16 360.05 141.16ZM371.33 140.92L371.21 139.36C370.81 139.56 370.35 139.62 369.95 139.62C369.07 139.62 368.47 139.1 368.47 138.04V132.42H371.17V130.92H368.47V127.86H366.77V130.92H364.89V132.42H366.77V137.98C366.77 140.2 368.03 141.16 369.75 141.16C370.29 141.16 370.83 141.1 371.33 140.92ZM372.694 126.84V129H374.654V126.84H372.694ZM372.814 141H374.514V130.92H372.814V141ZM381.307 141.16C384.287 141.16 386.447 138.98 386.447 135.96C386.447 132.94 384.287 130.76 381.307 130.76C378.307 130.76 376.187 132.94 376.187 135.96C376.187 138.98 378.307 141.16 381.307 141.16ZM381.307 139.64C379.287 139.64 377.927 138.12 377.927 135.96C377.927 133.8 379.287 132.28 381.307 132.28C383.327 132.28 384.687 133.8 384.687 135.96C384.687 138.12 383.327 139.64 381.307 139.64ZM388.122 141H389.822V136.58C389.822 133.92 391.022 132.3 392.902 132.3C394.322 132.3 395.182 133.28 395.182 134.64V141H396.882V134.32C396.882 132.18 395.382 130.76 393.282 130.76C391.742 130.76 390.522 131.62 389.822 132.82V130.92H388.122V141Z" fill="#100024" fill-opacity="0.55"/>
<path d="M237 129.425L232.595 125L222.66 134.227V139.387H227.757L237 129.425ZM232.699 127.52L234.341 129.158L233.062 130.515L231.35 128.803L232.699 127.52ZM224.528 137.52V135.013L229.85 130.091L231.709 132.14L226.962 137.524H224.528V137.52ZM236.654 142.183V144.046H218V142.183H236.654Z" fill="#A16AFF"/>
</g>
<g filter="url(#filter2_dd_638_294)">
<rect x="221" y="279" width="225" height="59" rx="8" fill="white"/>
<path d="M279.46 316H281.28V310.12H284.78C287.5 310.12 289.26 308.52 289.26 306.06C289.26 303.6 287.5 302 284.78 302H279.46V316ZM281.28 308.48V303.62H284.72C286.38 303.62 287.38 304.54 287.38 306.06C287.38 307.58 286.38 308.48 284.72 308.48H281.28ZM294.787 316.16C297.767 316.16 299.927 313.98 299.927 310.96C299.927 307.94 297.767 305.76 294.787 305.76C291.787 305.76 289.667 307.94 289.667 310.96C289.667 313.98 291.787 316.16 294.787 316.16ZM294.787 314.64C292.767 314.64 291.407 313.12 291.407 310.96C291.407 308.8 292.767 307.28 294.787 307.28C296.807 307.28 298.167 308.8 298.167 310.96C298.167 313.12 296.807 314.64 294.787 314.64ZM301.603 319.64H303.303V314.6C303.983 315.52 305.303 316.16 306.583 316.16C309.683 316.16 311.443 313.92 311.443 310.96C311.443 308 309.723 305.76 306.623 305.76C305.163 305.76 303.843 306.46 303.303 307.38V305.92H301.603V319.64ZM306.423 314.64C304.463 314.64 303.163 313.18 303.163 310.96C303.163 308.74 304.463 307.28 306.423 307.28C308.423 307.28 309.723 308.74 309.723 310.96C309.723 313.18 308.423 314.64 306.423 314.64ZM312.314 310.98H318.214V309.48H312.314V310.98ZM328.425 305.92H326.725V310.34C326.725 313 325.525 314.62 323.645 314.62C322.225 314.62 321.365 313.64 321.365 312.28V305.92H319.665V312.6C319.665 314.74 321.165 316.16 323.265 316.16C324.805 316.16 326.025 315.3 326.725 314.1V316H328.425V305.92ZM330.689 319.64H332.389V314.6C333.069 315.52 334.389 316.16 335.669 316.16C338.769 316.16 340.529 313.92 340.529 310.96C340.529 308 338.809 305.76 335.709 305.76C334.249 305.76 332.929 306.46 332.389 307.38V305.92H330.689V319.64ZM335.509 314.64C333.549 314.64 332.249 313.18 332.249 310.96C332.249 308.74 333.549 307.28 335.509 307.28C337.509 307.28 338.809 308.74 338.809 310.96C338.809 313.18 337.509 314.64 335.509 314.64ZM351.885 315.92L351.765 314.36C351.365 314.56 350.905 314.62 350.505 314.62C349.625 314.62 349.025 314.1 349.025 313.04V307.42H351.725V305.92H349.025V302.86H347.325V305.92H345.445V307.42H347.325V312.98C347.325 315.2 348.585 316.16 350.305 316.16C350.845 316.16 351.385 316.1 351.885 315.92ZM359.268 307.58L359.368 305.94C359.028 305.82 358.628 305.76 358.208 305.76C356.968 305.76 355.648 306.68 355.068 307.96V305.92H353.368V316H355.068V312.16C355.068 308.88 356.368 307.34 357.968 307.34C358.408 307.34 358.888 307.42 359.268 307.58ZM360.405 301.84V304H362.365V301.84H360.405ZM360.525 316H362.225V305.92H360.525V316ZM371.918 305.92V307.28C371.318 306.4 369.998 305.76 368.658 305.76C365.598 305.76 363.898 307.9 363.898 310.76C363.898 313.6 365.598 315.74 368.698 315.74C370.138 315.74 371.458 315.16 371.918 314.3V315.7C371.918 317.28 370.678 318.36 368.898 318.36C367.358 318.36 366.178 317.58 366.078 316.46L364.438 316.74C364.738 318.56 366.558 319.8 368.898 319.8C371.678 319.8 373.598 318.06 373.598 315.52V305.92H371.918ZM368.858 314.22C366.898 314.22 365.638 312.86 365.638 310.76C365.638 308.64 366.898 307.28 368.858 307.28C370.798 307.28 372.058 308.64 372.058 310.76C372.058 312.86 370.798 314.22 368.858 314.22ZM383.293 305.92V307.28C382.693 306.4 381.373 305.76 380.033 305.76C376.973 305.76 375.273 307.9 375.273 310.76C375.273 313.6 376.973 315.74 380.073 315.74C381.513 315.74 382.833 315.16 383.293 314.3V315.7C383.293 317.28 382.053 318.36 380.273 318.36C378.733 318.36 377.553 317.58 377.453 316.46L375.813 316.74C376.113 318.56 377.933 319.8 380.273 319.8C383.053 319.8 384.973 318.06 384.973 315.52V305.92H383.293ZM380.233 314.22C378.273 314.22 377.013 312.86 377.013 310.76C377.013 308.64 378.273 307.28 380.233 307.28C382.173 307.28 383.433 308.64 383.433 310.76C383.433 312.86 382.173 314.22 380.233 314.22ZM396.348 310.5C396.348 307.9 394.508 305.76 391.528 305.76C388.488 305.76 386.648 308.1 386.648 310.96C386.648 313.82 388.548 316.16 391.568 316.16C393.888 316.16 395.568 315.02 396.068 313.06L394.468 312.68C394.168 313.94 393.108 314.66 391.568 314.66C389.748 314.66 388.468 313.32 388.348 311.28H396.308C396.328 311.1 396.348 310.74 396.348 310.5ZM388.448 309.86C388.788 308.18 389.948 307.18 391.528 307.18C393.308 307.18 394.388 308.32 394.548 309.86H388.448ZM403.936 307.58L404.036 305.94C403.696 305.82 403.296 305.76 402.876 305.76C401.636 305.76 400.316 306.68 399.736 307.96V305.92H398.036V316H399.736V312.16C399.736 308.88 401.036 307.34 402.636 307.34C403.076 307.34 403.556 307.42 403.936 307.58ZM413.844 310.5C413.844 307.9 412.004 305.76 409.024 305.76C405.984 305.76 404.144 308.1 404.144 310.96C404.144 313.82 406.044 316.16 409.064 316.16C411.384 316.16 413.064 315.02 413.564 313.06L411.964 312.68C411.664 313.94 410.604 314.66 409.064 314.66C407.244 314.66 405.964 313.32 405.844 311.28H413.804C413.824 311.1 413.844 310.74 413.844 310.5ZM405.944 309.86C406.284 308.18 407.444 307.18 409.024 307.18C410.804 307.18 411.884 308.32 412.044 309.86H405.944ZM419.812 316.16C421.292 316.16 422.632 315.46 423.092 314.54V316H424.792V301.84H423.092V307.36C422.452 306.42 421.132 305.76 419.792 305.76C416.672 305.76 414.952 308 414.952 310.96C414.952 313.92 416.672 316.16 419.812 316.16ZM419.972 314.64C417.992 314.64 416.692 313.18 416.692 310.96C416.692 308.74 417.992 307.28 419.972 307.28C421.952 307.28 423.252 308.74 423.252 310.96C423.252 313.18 421.952 314.64 419.972 314.64Z" fill="#100024" fill-opacity="0.55"/>
<path d="M243 300V315.145H245.955V316.377L245.964 319.448L248.708 318.059L254.47 315.145H262V300H243.005H243ZM260.102 313.252H254.016L247.853 316.372V314.16L247.84 313.252H244.894V301.893H260.102V313.247V313.252Z" fill="#A16AFF"/>
</g>
</g>
<defs>
<filter id="filter0_dd_638_294" x="51" y="184.859" width="240" height="75" filterUnits="userSpaceOnUse" color-interpolation-filters="sRGB">
<feFlood flood-opacity="0" result="BackgroundImageFix"/>
<feColorMatrix in="SourceAlpha" type="matrix" values="0 0 0 0 0 0 0 0 0 0 0 0 0 0 0 0 0 0 127 0" result="hardAlpha"/>
<feOffset dy="0.859158"/>
<feGaussianBlur stdDeviation="0.859158"/>
<feComposite in2="hardAlpha" operator="out"/>
<feColorMatrix type="matrix" values="0 0 0 0 0 0 0 0 0 0 0 0 0 0 0 0 0 0 0.06 0"/>
<feBlend mode="normal" in2="BackgroundImageFix" result="effect1_dropShadow_638_294"/>
<feColorMatrix in="SourceAlpha" type="matrix" values="0 0 0 0 0 0 0 0 0 0 0 0 0 0 0 0 0 0 127 0" result="hardAlpha"/>
<feOffset dy="0.859158"/>
<feGaussianBlur stdDeviation="4"/>
<feComposite in2="hardAlpha" operator="out"/>
<feColorMatrix type="matrix" values="0 0 0 0 0 0 0 0 0 0 0 0 0 0 0 0 0 0 0.1 0"/>
<feBlend mode="normal" in2="effect1_dropShadow_638_294" result="effect2_dropShadow_638_294"/>
<feBlend mode="normal" in="SourceGraphic" in2="effect2_dropShadow_638_294" result="shape"/>
</filter>
<filter id="filter1_dd_638_294" x="189" y="97.8592" width="242" height="75" filterUnits="userSpaceOnUse" color-interpolation-filters="sRGB">
<feFlood flood-opacity="0" result="BackgroundImageFix"/>
<feColorMatrix in="SourceAlpha" type="matrix" values="0 0 0 0 0 0 0 0 0 0 0 0 0 0 0 0 0 0 127 0" result="hardAlpha"/>
<feOffset dy="0.859158"/>
<feGaussianBlur stdDeviation="0.859158"/>
<feComposite in2="hardAlpha" operator="out"/>
<feColorMatrix type="matrix" values="0 0 0 0 0 0 0 0 0 0 0 0 0 0 0 0 0 0 0.06 0"/>
<feBlend mode="normal" in2="BackgroundImageFix" result="effect1_dropShadow_638_294"/>
<feColorMatrix in="SourceAlpha" type="matrix" values="0 0 0 0 0 0 0 0 0 0 0 0 0 0 0 0 0 0 127 0" result="hardAlpha"/>
<feOffset dy="0.859158"/>
<feGaussianBlur stdDeviation="4"/>
<feComposite in2="hardAlpha" operator="out"/>
<feColorMatrix type="matrix" values="0 0 0 0 0 0 0 0 0 0 0 0 0 0 0 0 0 0 0.1 0"/>
<feBlend mode="normal" in2="effect1_dropShadow_638_294" result="effect2_dropShadow_638_294"/>
<feBlend mode="normal" in="SourceGraphic" in2="effect2_dropShadow_638_294" result="shape"/>
</filter>
<filter id="filter2_dd_638_294" x="213" y="271.859" width="241" height="75" filterUnits="userSpaceOnUse" color-interpolation-filters="sRGB">
<feFlood flood-opacity="0" result="BackgroundImageFix"/>
<feColorMatrix in="SourceAlpha" type="matrix" values="0 0 0 0 0 0 0 0 0 0 0 0 0 0 0 0 0 0 127 0" result="hardAlpha"/>
<feOffset dy="0.859158"/>
<feGaussianBlur stdDeviation="0.859158"/>
<feComposite in2="hardAlpha" operator="out"/>
<feColorMatrix type="matrix" values="0 0 0 0 0 0 0 0 0 0 0 0 0 0 0 0 0 0 0.06 0"/>
<feBlend mode="normal" in2="BackgroundImageFix" result="effect1_dropShadow_638_294"/>
<feColorMatrix in="SourceAlpha" type="matrix" values="0 0 0 0 0 0 0 0 0 0 0 0 0 0 0 0 0 0 127 0" result="hardAlpha"/>
<feOffset dy="0.859158"/>
<feGaussianBlur stdDeviation="4"/>
<feComposite in2="hardAlpha" operator="out"/>
<feColorMatrix type="matrix" values="0 0 0 0 0 0 0 0 0 0 0 0 0 0 0 0 0 0 0.1 0"/>
<feBlend mode="normal" in2="effect1_dropShadow_638_294" result="effect2_dropShadow_638_294"/>
<feBlend mode="normal" in="SourceGraphic" in2="effect2_dropShadow_638_294" result="shape"/>
</filter>
<linearGradient id="paint0_linear_638_294" x1="278.5" y1="72" x2="278.5" y2="396" gradientUnits="userSpaceOnUse">
<stop stop-color="#C2ACFF"/>
<stop offset="1" stop-color="#C2ACFF" stop-opacity="0"/>
</linearGradient>
<clipPath id="clip0_638_294">
<rect width="557" height="396" rx="8" fill="white"/>
</clipPath>
</defs>
</svg>
