<svg width="557" height="396" viewBox="0 0 557 396" fill="none" xmlns="http://www.w3.org/2000/svg">
<rect width="557" height="396" rx="8" fill="#F6F5F9"/>
<g filter="url(#filter0_dd_638_195)">
<rect x="146" y="54" width="250" height="288" rx="8" fill="white"/>
<rect width="192" height="230" transform="translate(157 104)" fill="white"/>
<path d="M180.774 128.947V120.965H179.851C179.604 121.771 178.98 122.447 177.641 122.447H177.264V123.5H177.706C178.772 123.5 179.357 123.201 179.669 122.824V128.947H177.147V130H182.997V128.947H180.774ZM176.939 151H182.867V149.947H178.512C179.396 149.336 180.033 148.816 180.735 148.166C182.126 146.879 182.763 145.774 182.763 144.5C182.763 142.745 181.71 141.77 179.955 141.77C178.135 141.77 177.043 142.797 177.043 144.396C177.043 144.63 177.069 144.864 177.134 145.124L178.304 145.241C178.239 144.916 178.2 144.643 178.2 144.409C178.2 143.421 178.837 142.784 179.89 142.784C180.93 142.784 181.541 143.408 181.541 144.513C181.541 145.592 181.151 146.346 180.007 147.451C178.85 148.556 177.68 149.492 176.939 150.038V151ZM179.968 172.195C181.892 172.195 183.114 171.077 183.114 169.439C183.114 168.217 182.425 167.385 181.242 167.177C182.178 166.93 182.802 166.137 182.802 165.24C182.802 163.745 181.788 162.77 180.033 162.77C178.187 162.77 176.978 163.862 176.978 165.604L178.07 165.838C178.07 164.525 178.772 163.745 179.968 163.745C181.06 163.745 181.632 164.317 181.632 165.24C181.632 166.124 181.099 166.826 179.929 166.826H179.409V167.788H179.968C181.268 167.788 181.944 168.477 181.944 169.439C181.944 170.57 181.229 171.22 180.007 171.22C178.72 171.22 178.005 170.427 177.953 169.283L176.809 169.426C176.861 171.038 178.031 172.195 179.968 172.195ZM180.657 193H181.762V190.712H183.244V189.802H181.762V183.965H180.501L176.549 189.919V190.712H180.657V193ZM177.693 189.802C177.927 189.555 178.031 189.373 178.304 188.957L179.994 186.422C180.384 185.824 180.514 185.59 180.67 185.174H180.683C180.657 185.837 180.657 186.071 180.657 186.487V189.802H177.693ZM179.916 214.195C181.827 214.195 183.049 212.895 183.049 210.997C183.049 209.047 182.009 207.838 180.293 207.838C179.318 207.838 178.59 208.254 178.161 209.047L178.499 205.979H182.607V204.965H177.615L177.082 210.204L178.2 210.321C178.447 209.372 179.045 208.813 180.007 208.813C181.255 208.813 181.879 209.71 181.879 211.062C181.879 212.388 181.177 213.194 179.981 213.194C178.928 213.194 178.33 212.544 178.148 211.647L176.939 211.79C177.173 213.259 178.317 214.195 179.916 214.195ZM180.254 228.968C179.227 228.968 178.382 229.449 177.966 230.268C178.018 227.967 178.746 226.745 180.176 226.745C181.034 226.745 181.567 227.226 181.775 228.266L182.945 228.006C182.672 226.55 181.684 225.77 180.189 225.77C178.018 225.77 176.822 227.538 176.822 230.684C176.822 233.635 177.914 235.195 180.072 235.195C181.84 235.195 183.049 233.934 183.049 232.049C183.049 230.19 181.957 228.968 180.254 228.968ZM180.085 234.22C178.915 234.22 178.148 233.258 178.005 231.776C178.317 230.58 179.045 229.943 180.033 229.943C181.177 229.943 181.879 230.775 181.879 232.062C181.879 233.375 181.177 234.22 180.085 234.22ZM178.512 256H179.799V255.779C179.799 253.101 180.852 250.267 182.997 247.875V246.965H177.017V248.044H181.671C179.669 250.54 178.512 253.179 178.512 255.87V256ZM181.281 272.138C182.23 271.813 182.737 271.098 182.737 270.071C182.737 268.667 181.658 267.77 179.981 267.77C178.317 267.77 177.199 268.706 177.199 270.097C177.199 271.124 177.628 271.787 178.616 272.255C177.459 272.619 176.861 273.425 176.861 274.66C176.861 276.194 178.109 277.195 180.007 277.195C181.866 277.195 183.075 276.155 183.075 274.582C183.075 273.373 182.542 272.632 181.281 272.138ZM179.942 268.654C180.969 268.654 181.567 269.2 181.567 270.123C181.567 270.942 181.216 271.397 180.215 271.8L179.773 271.67C178.785 271.345 178.369 270.877 178.369 270.097C178.369 269.2 178.967 268.654 179.942 268.654ZM180.007 276.259C178.824 276.259 178.044 275.557 178.044 274.491C178.044 273.568 178.473 273.022 179.604 272.619L180.436 272.879C181.463 273.23 181.905 273.75 181.905 274.582C181.905 275.635 181.203 276.259 180.007 276.259ZM179.812 288.77C178.005 288.77 176.835 290.031 176.835 291.734C176.835 293.632 178.083 294.633 179.734 294.633C180.683 294.633 181.463 294.256 181.918 293.476C181.892 295.738 181.346 297.22 179.89 297.22C178.772 297.22 178.291 296.557 178.109 295.569L176.939 295.829C177.225 297.35 178.226 298.195 179.877 298.195C182.191 298.195 183.088 296.063 183.088 293.307C183.088 290.33 182.035 288.77 179.812 288.77ZM179.851 293.658C178.772 293.658 178.005 292.93 178.005 291.721C178.005 290.538 178.72 289.745 179.799 289.745C181.268 289.745 181.762 290.876 181.892 291.955C181.684 292.93 180.826 293.658 179.851 293.658ZM172.713 317.947V309.965H171.79C171.543 310.771 170.919 311.447 169.58 311.447H169.203V312.5H169.645C170.711 312.5 171.296 312.201 171.608 311.824V317.947H169.086V319H174.936V317.947H172.713ZM179.968 309.77C177.914 309.77 176.679 311.148 176.666 314.489C176.679 317.817 177.914 319.195 179.968 319.195C182.022 319.195 183.257 317.817 183.27 314.489C183.257 311.148 182.022 309.77 179.968 309.77ZM179.968 310.745C180.644 310.745 181.203 310.979 181.58 311.629L178.005 316.4C177.875 315.893 177.81 315.256 177.81 314.489C177.823 311.616 178.681 310.745 179.968 310.745ZM179.968 318.22C179.253 318.22 178.668 317.947 178.291 317.219L181.905 312.422C182.048 312.955 182.126 313.631 182.126 314.489C182.113 317.323 181.255 318.22 179.968 318.22Z" fill="#24292E" fill-opacity="0.3"/>
<path d="M206.174 123L205.936 124.036C205.6 123.392 204.788 122.832 203.906 122.832C202.044 122.832 200.882 124.358 200.882 126.486C200.882 128.67 201.988 130.168 203.738 130.168C204.718 130.168 205.544 129.608 205.922 128.796V132.73H207.112V123H206.174ZM205.95 126.304V126.696C205.95 128.166 205.208 129.118 203.948 129.118C202.87 129.118 202.142 128.082 202.142 126.486C202.142 124.932 202.814 123.882 203.99 123.882C205.166 123.882 205.95 124.82 205.95 126.304ZM214.66 128.67V130H215.78V123H214.59V126.654C214.59 127.676 214.24 129.146 212.77 129.146C212.042 129.146 211.314 128.81 211.314 127.284V123H210.096V127.326C210.096 128.46 210.292 129.118 210.74 129.552C211.23 130.014 211.888 130.168 212.532 130.168C213.568 130.168 214.394 129.37 214.66 128.67ZM224.643 126.276C224.643 124.372 223.817 122.832 221.675 122.832C219.715 122.832 218.483 124.218 218.483 126.36C218.483 128.656 219.561 130.168 221.759 130.168C223.075 130.168 224.027 129.566 224.615 128.404L223.607 127.872C223.257 128.544 222.683 129.118 221.759 129.118C220.457 129.118 219.701 128.124 219.701 126.808H224.615C224.629 126.626 224.643 126.444 224.643 126.276ZM223.411 125.828H219.701C219.701 124.806 220.345 123.756 221.619 123.756C222.879 123.756 223.439 124.708 223.411 125.828ZM229.181 124.82V123H228.005V130H229.195V127.396C229.195 125.114 230.539 123.966 232.219 123.966C232.723 123.966 233.241 124.036 233.521 124.106V123C233.227 122.916 232.765 122.86 232.261 122.86C230.805 122.86 229.657 123.714 229.181 124.82ZM237.205 123H235.861L238.591 129.916L238.409 130.434C238.087 131.358 237.653 131.736 236.799 131.736C236.645 131.736 236.477 131.722 236.295 131.708V132.758C236.519 132.8 236.729 132.814 236.939 132.814C238.115 132.814 238.955 132.226 239.599 130.448L242.399 123H241.125L239.179 128.614L237.205 123Z" fill="#100024"/>
<path d="M309.85 131.596H310.942V130.616H309.85C308.94 130.616 308.408 130.07 308.408 129.216V127.662C308.408 126.738 308.296 125.828 307.512 125.478C308.296 125.184 308.422 124.344 308.422 123.392V121.782C308.422 120.928 308.926 120.382 309.836 120.382H310.942V119.402H309.836C308.282 119.402 307.33 120.242 307.33 121.488V123.532C307.33 124.414 307.288 124.946 306.224 124.946V126.038C307.274 126.038 307.344 126.682 307.344 127.508V129.51C307.344 130.756 308.296 131.596 309.85 131.596ZM301.168 152.596H302.26V151.616H301.168C300.258 151.616 299.726 151.07 299.726 150.216V148.662C299.726 147.738 299.614 146.828 298.83 146.478C299.614 146.184 299.74 145.344 299.74 144.392V142.782C299.74 141.928 300.244 141.382 301.154 141.382H302.26V140.402H301.154C299.6 140.402 298.648 141.242 298.648 142.488V144.532C298.648 145.414 298.606 145.946 297.542 145.946V147.038C298.592 147.038 298.662 147.682 298.662 148.508V150.51C298.662 151.756 299.614 152.596 301.168 152.596ZM335.895 173.596H336.987V172.616H335.895C334.985 172.616 334.453 172.07 334.453 171.216V169.662C334.453 168.738 334.341 167.828 333.557 167.478C334.341 167.184 334.467 166.344 334.467 165.392V163.782C334.467 162.928 334.971 162.382 335.881 162.382H336.987V161.402H335.881C334.327 161.402 333.375 162.242 333.375 163.488V165.532C333.375 166.414 333.333 166.946 332.269 166.946V168.038C333.319 168.038 333.389 168.682 333.389 169.508V171.51C333.389 172.756 334.341 173.596 335.895 173.596ZM335.895 194.596H336.987V193.616H335.895C334.985 193.616 334.453 193.07 334.453 192.216V190.662C334.453 189.738 334.341 188.828 333.557 188.478C334.341 188.184 334.467 187.344 334.467 186.392V184.782C334.467 183.928 334.971 183.382 335.881 183.382H336.987V182.402H335.881C334.327 182.402 333.375 183.242 333.375 184.488V186.532C333.375 187.414 333.333 187.946 332.269 187.946V189.038C333.319 189.038 333.389 189.682 333.389 190.508V192.51C333.389 193.756 334.341 194.596 335.895 194.596ZM255.1 257.596C256.654 257.596 257.606 256.756 257.606 255.51V253.508C257.606 252.682 257.676 252.038 258.726 252.038V250.946C257.662 250.946 257.62 250.414 257.62 249.532V247.488C257.62 246.242 256.668 245.402 255.114 245.402H254.008V246.382H255.114C256.024 246.382 256.528 246.928 256.528 247.782V249.392C256.528 250.344 256.654 251.184 257.438 251.478C256.654 251.828 256.542 252.738 256.542 253.662V255.216C256.542 256.07 256.01 256.616 255.1 256.616H254.008V257.596H255.1ZM237.737 278.596C239.291 278.596 240.243 277.756 240.243 276.51V274.508C240.243 273.682 240.313 273.038 241.363 273.038V271.946C240.299 271.946 240.257 271.414 240.257 270.532V268.488C240.257 267.242 239.305 266.402 237.751 266.402H236.645V267.382H237.751C238.661 267.382 239.165 267.928 239.165 268.782V270.392C239.165 271.344 239.291 272.184 240.075 272.478C239.291 272.828 239.179 273.738 239.179 274.662V276.216C239.179 277.07 238.647 277.616 237.737 277.616H236.645V278.596H237.737ZM220.373 299.596C221.927 299.596 222.879 298.756 222.879 297.51V295.508C222.879 294.682 222.949 294.038 223.999 294.038V292.946C222.935 292.946 222.893 292.414 222.893 291.532V289.488C222.893 288.242 221.941 287.402 220.387 287.402H219.281V288.382H220.387C221.297 288.382 221.801 288.928 221.801 289.782V291.392C221.801 292.344 221.927 293.184 222.711 293.478C221.927 293.828 221.815 294.738 221.815 295.662V297.216C221.815 298.07 221.283 298.616 220.373 298.616H219.281V299.596H220.373ZM203.01 320.596C204.564 320.596 205.516 319.756 205.516 318.51V316.508C205.516 315.682 205.586 315.038 206.636 315.038V313.946C205.572 313.946 205.53 313.414 205.53 312.532V310.488C205.53 309.242 204.578 308.402 203.024 308.402H201.918V309.382H203.024C203.934 309.382 204.438 309.928 204.438 310.782V312.392C204.438 313.344 204.564 314.184 205.348 314.478C204.564 314.828 204.452 315.738 204.452 316.662V318.216C204.452 319.07 203.92 319.616 203.01 319.616H201.918V320.596H203.01Z" fill="#24292E"/>
<path d="M260.056 125.478V124.582C260.056 121.628 258.852 119.822 256.43 119.822C254.008 119.822 252.804 121.628 252.804 124.582V125.478C252.804 128.432 254.008 130.238 256.43 130.238C256.584 130.238 256.738 130.224 256.878 130.21C257.256 131.19 258.082 131.82 259.132 131.82C259.468 131.82 259.706 131.778 260.014 131.736V130.546C259.804 130.602 259.622 130.644 259.37 130.644C258.964 130.644 258.432 130.602 257.928 129.958C259.342 129.328 260.056 127.746 260.056 125.478ZM258.698 125.478C258.698 127.97 257.984 129.118 256.43 129.118C254.876 129.118 254.162 127.97 254.162 125.478V124.582C254.162 122.09 254.876 120.942 256.43 120.942C257.984 120.942 258.698 122.09 258.698 124.582V125.478ZM266.749 128.67V130H267.869V123H266.679V126.654C266.679 127.676 266.329 129.146 264.859 129.146C264.131 129.146 263.403 128.81 263.403 127.284V123H262.185V127.326C262.185 128.46 262.381 129.118 262.829 129.552C263.319 130.014 263.977 130.168 264.621 130.168C265.657 130.168 266.483 129.37 266.749 128.67ZM276.733 126.276C276.733 124.372 275.907 122.832 273.765 122.832C271.805 122.832 270.573 124.218 270.573 126.36C270.573 128.656 271.651 130.168 273.849 130.168C275.165 130.168 276.117 129.566 276.705 128.404L275.697 127.872C275.347 128.544 274.773 129.118 273.849 129.118C272.547 129.118 271.791 128.124 271.791 126.808H276.705C276.719 126.626 276.733 126.444 276.733 126.276ZM275.501 125.828H271.791C271.791 124.806 272.435 123.756 273.709 123.756C274.969 123.756 275.529 124.708 275.501 125.828ZM281.271 124.82V123H280.095V130H281.285V127.396C281.285 125.114 282.629 123.966 284.309 123.966C284.813 123.966 285.331 124.036 285.611 124.106V123C285.317 122.916 284.855 122.86 284.351 122.86C282.895 122.86 281.747 123.714 281.271 124.82ZM289.294 123H287.95L290.68 129.916L290.498 130.434C290.176 131.358 289.742 131.736 288.888 131.736C288.734 131.736 288.566 131.722 288.384 131.708V132.758C288.608 132.8 288.818 132.814 289.028 132.814C290.204 132.814 291.044 132.226 291.688 130.448L294.488 123H293.214L291.268 128.614L289.294 123Z" fill="#6F42C1"/>
<path d="M220.051 144H218.931V153.73H220.121V149.894C220.443 150.636 221.311 151.168 222.179 151.168C224.041 151.168 225.161 149.67 225.161 147.486C225.161 145.358 224.083 143.832 222.249 143.832C221.255 143.832 220.415 144.532 220.051 145.302V144ZM220.093 147.654V147.318C220.093 145.82 220.849 144.882 222.025 144.882C223.257 144.882 223.901 145.932 223.901 147.486C223.901 149.082 223.201 150.118 221.983 150.118C220.807 150.118 220.093 149.138 220.093 147.654ZM229.181 145.82V144H228.005V151H229.195V148.396C229.195 146.114 230.539 144.966 232.219 144.966C232.723 144.966 233.241 145.036 233.521 145.106V144C233.227 143.916 232.765 143.86 232.261 143.86C230.805 143.86 229.657 144.714 229.181 145.82ZM239.067 151.168C241.027 151.168 242.329 149.726 242.329 147.5C242.329 145.274 241.027 143.832 239.067 143.832C237.107 143.832 235.805 145.274 235.805 147.5C235.805 149.698 237.107 151.168 239.067 151.168ZM239.067 150.132C237.807 150.132 237.065 149.152 237.065 147.5C237.065 145.848 237.807 144.868 239.067 144.868C240.327 144.868 241.069 145.862 241.069 147.5C241.069 149.152 240.327 150.132 239.067 150.132ZM249.26 140.85V145.036C248.91 144.35 248.238 143.832 247.286 143.832C245.438 143.832 244.22 145.288 244.22 147.486C244.22 149.712 245.354 151.168 247.104 151.168C248.252 151.168 248.91 150.608 249.33 149.698V151H250.45V140.85H249.26ZM249.288 147.332V147.654C249.288 149.166 248.546 150.118 247.356 150.118C246.194 150.118 245.48 149.11 245.48 147.486C245.48 145.848 246.194 144.882 247.398 144.882C248.56 144.882 249.288 145.834 249.288 147.332ZM258.068 149.67V151H259.188V144H257.998V147.654C257.998 148.676 257.648 150.146 256.178 150.146C255.45 150.146 254.722 149.81 254.722 148.284V144H253.504V148.326C253.504 149.46 253.7 150.118 254.148 150.552C254.638 151.014 255.296 151.168 255.94 151.168C256.976 151.168 257.802 150.37 258.068 149.67ZM265.111 151.168C266.847 151.168 267.757 150.048 267.981 148.62L266.847 148.438C266.679 149.502 266.133 150.118 265.111 150.118C263.781 150.118 263.123 149.04 263.123 147.444C263.123 145.904 263.781 144.868 265.069 144.868C266.063 144.868 266.651 145.442 266.777 146.478L267.995 146.338C267.827 144.728 266.707 143.832 265.153 143.832C262.955 143.832 261.891 145.372 261.891 147.458C261.891 149.558 262.983 151.168 265.111 151.168ZM270.685 144.966H272.687V148.76C272.687 150.146 273.485 151.126 275.235 151.126C275.851 151.126 276.243 151.028 276.607 150.944V149.852C276.173 149.936 275.683 149.978 275.221 149.978C274.325 149.978 273.877 149.53 273.877 148.592V144.966H276.607V144H273.877V141.662L272.687 142.166V144H270.685V144.966ZM282.643 151.168C284.351 151.168 285.331 150.356 285.331 149.026C285.331 147.92 284.785 147.192 283.399 147.038L282.279 146.912C281.411 146.814 281.019 146.45 281.019 145.848C281.019 145.176 281.565 144.798 282.489 144.798C283.441 144.798 284.015 145.386 284.169 146.226L285.345 145.96C285.191 144.672 284.113 143.832 282.517 143.832C280.865 143.832 279.857 144.63 279.857 145.904C279.857 146.982 280.515 147.766 281.901 147.92L283.035 148.046C283.791 148.13 284.155 148.438 284.155 149.138C284.155 149.796 283.637 150.188 282.699 150.188C281.663 150.188 281.005 149.656 280.823 148.634L279.619 148.844C279.871 150.342 280.977 151.168 282.643 151.168Z" fill="#468EEA"/>
<path d="M239.067 172.168C240.803 172.168 241.713 171.048 241.937 169.62L240.803 169.438C240.635 170.502 240.089 171.118 239.067 171.118C237.737 171.118 237.079 170.04 237.079 168.444C237.079 166.904 237.737 165.868 239.025 165.868C240.019 165.868 240.607 166.442 240.733 167.478L241.951 167.338C241.783 165.728 240.663 164.832 239.109 164.832C236.911 164.832 235.847 166.372 235.847 168.458C235.847 170.558 236.939 172.168 239.067 172.168ZM249.386 170.67V172H250.506V165H249.316V168.654C249.316 169.676 248.966 171.146 247.496 171.146C246.768 171.146 246.04 170.81 246.04 169.284V165H244.822V169.326C244.822 170.46 245.018 171.118 245.466 171.552C245.956 172.014 246.614 172.168 247.258 172.168C248.294 172.168 249.12 171.37 249.386 170.67ZM256.598 172.168C258.306 172.168 259.286 171.356 259.286 170.026C259.286 168.92 258.74 168.192 257.354 168.038L256.234 167.912C255.366 167.814 254.974 167.45 254.974 166.848C254.974 166.176 255.52 165.798 256.444 165.798C257.396 165.798 257.97 166.386 258.124 167.226L259.3 166.96C259.146 165.672 258.068 164.832 256.472 164.832C254.82 164.832 253.812 165.63 253.812 166.904C253.812 167.982 254.47 168.766 255.856 168.92L256.99 169.046C257.746 169.13 258.11 169.438 258.11 170.138C258.11 170.796 257.592 171.188 256.654 171.188C255.618 171.188 254.96 170.656 254.778 169.634L253.574 169.844C253.826 171.342 254.932 172.168 256.598 172.168ZM262.003 165.966H264.005V169.76C264.005 171.146 264.803 172.126 266.553 172.126C267.169 172.126 267.561 172.028 267.925 171.944V170.852C267.491 170.936 267.001 170.978 266.539 170.978C265.643 170.978 265.195 170.53 265.195 169.592V165.966H267.925V165H265.195V162.662L264.005 163.166V165H262.003V165.966ZM273.793 172.168C275.753 172.168 277.055 170.726 277.055 168.5C277.055 166.274 275.753 164.832 273.793 164.832C271.833 164.832 270.531 166.274 270.531 168.5C270.531 170.698 271.833 172.168 273.793 172.168ZM273.793 171.132C272.533 171.132 271.791 170.152 271.791 168.5C271.791 166.848 272.533 165.868 273.793 165.868C275.053 165.868 275.795 166.862 275.795 168.5C275.795 170.152 275.053 171.132 273.793 171.132ZM279.885 166.078V165H278.765V172H279.955V167.366C279.955 166.526 280.235 165.882 281.047 165.882C281.495 165.882 281.873 166.162 281.873 167.016V172H283.035V167.366C283.035 166.484 283.329 165.882 284.155 165.882C284.561 165.882 284.981 166.12 284.981 167.016V172H286.171V166.918C286.171 165.434 285.387 164.832 284.519 164.832C283.833 164.832 283.203 165.294 282.867 166.106C282.629 165.294 282.097 164.832 281.411 164.832C280.711 164.832 280.165 165.322 279.885 166.078ZM294.096 168.276C294.096 166.372 293.27 164.832 291.128 164.832C289.168 164.832 287.936 166.218 287.936 168.36C287.936 170.656 289.014 172.168 291.212 172.168C292.528 172.168 293.48 171.566 294.068 170.404L293.06 169.872C292.71 170.544 292.136 171.118 291.212 171.118C289.91 171.118 289.154 170.124 289.154 168.808H294.068C294.082 168.626 294.096 168.444 294.096 168.276ZM292.864 167.828H289.154C289.154 166.806 289.798 165.756 291.072 165.756C292.332 165.756 292.892 166.708 292.864 167.828ZM298.634 166.82V165H297.458V172H298.648V169.396C298.648 167.114 299.992 165.966 301.672 165.966C302.176 165.966 302.694 166.036 302.974 166.106V165C302.68 164.916 302.218 164.86 301.714 164.86C300.258 164.86 299.11 165.714 298.634 166.82ZM308.52 172.238C310.942 172.238 312.146 170.432 312.146 167.478V166.582C312.146 163.628 310.942 161.822 308.52 161.822C306.098 161.822 304.894 163.628 304.894 166.582V167.478C304.894 170.432 306.098 172.238 308.52 172.238ZM308.52 171.118C306.966 171.118 306.252 169.97 306.252 167.478V166.582C306.252 164.09 306.966 162.942 308.52 162.942C310.074 162.942 310.788 164.09 310.788 166.582V167.478C310.788 169.97 310.074 171.118 308.52 171.118ZM317.313 172.238C319.679 172.238 320.659 170.782 320.659 169.382C320.659 167.464 319.399 166.876 318.069 166.526L316.795 166.19C315.955 165.952 315.269 165.392 315.269 164.51C315.269 163.768 315.689 162.914 317.145 162.914C318.209 162.914 319.217 163.404 319.343 164.972L320.589 164.608C320.393 162.578 318.923 161.822 317.103 161.822C315.171 161.822 313.939 163.152 313.939 164.622C313.939 166.162 314.989 167.002 316.389 167.38L317.719 167.73C318.503 167.94 319.329 168.248 319.329 169.564C319.329 170.824 318.237 171.146 317.299 171.146C315.787 171.146 315.115 170.082 314.891 168.892L313.631 169.144C313.869 170.782 314.919 172.238 317.313 172.238ZM256.43 193.168C258.166 193.168 259.076 192.048 259.3 190.62L258.166 190.438C257.998 191.502 257.452 192.118 256.43 192.118C255.1 192.118 254.442 191.04 254.442 189.444C254.442 187.904 255.1 186.868 256.388 186.868C257.382 186.868 257.97 187.442 258.096 188.478L259.314 188.338C259.146 186.728 258.026 185.832 256.472 185.832C254.274 185.832 253.21 187.372 253.21 189.458C253.21 191.558 254.302 193.168 256.43 193.168ZM266.749 191.67V193H267.869V186H266.679V189.654C266.679 190.676 266.329 192.146 264.859 192.146C264.131 192.146 263.403 191.81 263.403 190.284V186H262.185V190.326C262.185 191.46 262.381 192.118 262.829 192.552C263.319 193.014 263.977 193.168 264.621 193.168C265.657 193.168 266.483 192.37 266.749 191.67ZM273.961 193.168C275.669 193.168 276.649 192.356 276.649 191.026C276.649 189.92 276.103 189.192 274.717 189.038L273.597 188.912C272.729 188.814 272.337 188.45 272.337 187.848C272.337 187.176 272.883 186.798 273.807 186.798C274.759 186.798 275.333 187.386 275.487 188.226L276.663 187.96C276.509 186.672 275.431 185.832 273.835 185.832C272.183 185.832 271.175 186.63 271.175 187.904C271.175 188.982 271.833 189.766 273.219 189.92L274.353 190.046C275.109 190.13 275.473 190.438 275.473 191.138C275.473 191.796 274.955 192.188 274.017 192.188C272.981 192.188 272.323 191.656 272.141 190.634L270.937 190.844C271.189 192.342 272.295 193.168 273.961 193.168ZM279.367 186.966H281.369V190.76C281.369 192.146 282.167 193.126 283.917 193.126C284.533 193.126 284.925 193.028 285.289 192.944V191.852C284.855 191.936 284.365 191.978 283.903 191.978C283.007 191.978 282.559 191.53 282.559 190.592V186.966H285.289V186H282.559V183.662L281.369 184.166V186H279.367V186.966ZM291.156 193.168C293.116 193.168 294.418 191.726 294.418 189.5C294.418 187.274 293.116 185.832 291.156 185.832C289.196 185.832 287.894 187.274 287.894 189.5C287.894 191.698 289.196 193.168 291.156 193.168ZM291.156 192.132C289.896 192.132 289.154 191.152 289.154 189.5C289.154 187.848 289.896 186.868 291.156 186.868C292.416 186.868 293.158 187.862 293.158 189.5C293.158 191.152 292.416 192.132 291.156 192.132ZM297.248 187.078V186H296.128V193H297.318V188.366C297.318 187.526 297.598 186.882 298.41 186.882C298.858 186.882 299.236 187.162 299.236 188.016V193H300.398V188.366C300.398 187.484 300.692 186.882 301.518 186.882C301.924 186.882 302.344 187.12 302.344 188.016V193H303.534V187.918C303.534 186.434 302.75 185.832 301.882 185.832C301.196 185.832 300.566 186.294 300.23 187.106C299.992 186.294 299.46 185.832 298.774 185.832C298.074 185.832 297.528 186.322 297.248 187.078ZM311.46 189.276C311.46 187.372 310.634 185.832 308.492 185.832C306.532 185.832 305.3 187.218 305.3 189.36C305.3 191.656 306.378 193.168 308.576 193.168C309.892 193.168 310.844 192.566 311.432 191.404L310.424 190.872C310.074 191.544 309.5 192.118 308.576 192.118C307.274 192.118 306.518 191.124 306.518 189.808H311.432C311.446 189.626 311.46 189.444 311.46 189.276ZM310.228 188.828H306.518C306.518 187.806 307.162 186.756 308.436 186.756C309.696 186.756 310.256 187.708 310.228 188.828ZM315.997 187.82V186H314.821V193H316.011V190.396C316.011 188.114 317.355 186.966 319.035 186.966C319.539 186.966 320.057 187.036 320.337 187.106V186C320.043 185.916 319.581 185.86 319.077 185.86C317.621 185.86 316.473 186.714 315.997 187.82ZM272.015 208.386V207H270.895V214H272.085V210.346C272.085 209.352 272.463 207.882 274.045 207.882C274.745 207.882 275.501 208.218 275.501 209.744V214H276.691V209.674C276.691 208.54 276.481 207.868 276.019 207.434C275.543 206.986 274.899 206.832 274.325 206.832C273.149 206.832 272.379 207.504 272.015 208.386ZM285.121 211.634V209.744C285.121 207.728 284.309 206.832 282.503 206.832C280.725 206.832 279.633 207.7 279.507 209.198H280.781C280.837 208.316 281.425 207.812 282.419 207.812C283.455 207.812 283.917 208.358 283.917 209.604V209.73L282.643 209.884C281.481 210.024 280.725 210.206 280.263 210.458C279.619 210.822 279.283 211.382 279.283 212.11C279.283 213.314 280.249 214.168 281.635 214.168C282.783 214.168 283.539 213.706 284.001 212.726C284.015 213.146 284.057 213.608 284.113 214H285.359C285.191 213.482 285.121 212.754 285.121 211.634ZM283.931 210.598V210.948C283.931 212.32 283.119 213.188 281.859 213.188C281.033 213.188 280.543 212.754 280.543 212.04C280.543 211.34 281.047 210.99 282.265 210.822L283.931 210.598ZM288.566 208.078V207H287.446V214H288.636V209.366C288.636 208.526 288.916 207.882 289.728 207.882C290.176 207.882 290.554 208.162 290.554 209.016V214H291.716V209.366C291.716 208.484 292.01 207.882 292.836 207.882C293.242 207.882 293.662 208.12 293.662 209.016V214H294.852V208.918C294.852 207.434 294.068 206.832 293.2 206.832C292.514 206.832 291.884 207.294 291.548 208.106C291.31 207.294 290.778 206.832 290.092 206.832C289.392 206.832 288.846 207.322 288.566 208.078ZM302.778 210.276C302.778 208.372 301.952 206.832 299.81 206.832C297.85 206.832 296.618 208.218 296.618 210.36C296.618 212.656 297.696 214.168 299.894 214.168C301.21 214.168 302.162 213.566 302.75 212.404L301.742 211.872C301.392 212.544 300.818 213.118 299.894 213.118C298.592 213.118 297.836 212.124 297.836 210.808H302.75C302.764 210.626 302.778 210.444 302.778 210.276ZM301.546 209.828H297.836C297.836 208.806 298.48 207.756 299.754 207.756C301.014 207.756 301.574 208.708 301.546 209.828ZM276.733 231.276C276.733 229.372 275.907 227.832 273.765 227.832C271.805 227.832 270.573 229.218 270.573 231.36C270.573 233.656 271.651 235.168 273.849 235.168C275.165 235.168 276.117 234.566 276.705 233.404L275.697 232.872C275.347 233.544 274.773 234.118 273.849 234.118C272.547 234.118 271.791 233.124 271.791 231.808H276.705C276.719 231.626 276.733 231.444 276.733 231.276ZM275.501 230.828H271.791C271.791 229.806 272.435 228.756 273.709 228.756C274.969 228.756 275.529 229.708 275.501 230.828ZM279.885 229.078V228H278.765V235H279.955V230.366C279.955 229.526 280.235 228.882 281.047 228.882C281.495 228.882 281.873 229.162 281.873 230.016V235H283.035V230.366C283.035 229.484 283.329 228.882 284.155 228.882C284.561 228.882 284.981 229.12 284.981 230.016V235H286.171V229.918C286.171 228.434 285.387 227.832 284.519 227.832C283.833 227.832 283.203 228.294 282.867 229.106C282.629 228.294 282.097 227.832 281.411 227.832C280.711 227.832 280.165 228.322 279.885 229.078ZM293.802 232.634V230.744C293.802 228.728 292.99 227.832 291.184 227.832C289.406 227.832 288.314 228.7 288.188 230.198H289.462C289.518 229.316 290.106 228.812 291.1 228.812C292.136 228.812 292.598 229.358 292.598 230.604V230.73L291.324 230.884C290.162 231.024 289.406 231.206 288.944 231.458C288.3 231.822 287.964 232.382 287.964 233.11C287.964 234.314 288.93 235.168 290.316 235.168C291.464 235.168 292.22 234.706 292.682 233.726C292.696 234.146 292.738 234.608 292.794 235H294.04C293.872 234.482 293.802 233.754 293.802 232.634ZM292.612 231.598V231.948C292.612 233.32 291.8 234.188 290.54 234.188C289.714 234.188 289.224 233.754 289.224 233.04C289.224 232.34 289.728 231.99 290.946 231.822L292.612 231.598ZM300.804 224.92H299.124V226.6H300.804V224.92ZM297.248 235H303.044V234.02H300.678V228H297.458V228.98H299.488V234.02H297.248V235ZM305.93 235H311.726V234.02H309.36V224.85H306.07V225.83H308.17V234.02H305.93V235Z" fill="#468EEA"/>
<path d="M171.432 84.112C174.26 84.112 176.332 81.998 176.332 79.1C176.332 76.202 174.26 74.088 171.432 74.088C168.604 74.088 166.532 76.202 166.532 79.1C166.532 81.998 168.604 84.112 171.432 84.112ZM171.432 82.67C169.542 82.67 168.184 81.172 168.184 79.1C168.184 77.028 169.542 75.516 171.432 75.516C173.322 75.516 174.68 77.028 174.68 79.1C174.68 81.172 173.322 82.67 171.432 82.67ZM177.765 86.548H179.291V83.188C179.725 83.748 180.551 84.112 181.405 84.112C183.519 84.112 184.807 82.6 184.807 80.472C184.807 78.344 183.575 76.832 181.489 76.832C180.509 76.832 179.683 77.266 179.291 77.84V76.944H177.765V86.548ZM181.237 82.782C180.005 82.782 179.193 81.858 179.193 80.472C179.193 79.072 180.005 78.162 181.237 78.162C182.469 78.162 183.281 79.072 183.281 80.472C183.281 81.858 182.469 82.782 181.237 82.782ZM192.752 80.206C192.752 78.484 191.548 76.832 189.28 76.832C187.04 76.832 185.836 78.568 185.836 80.472C185.836 82.376 187.11 84.112 189.35 84.112C191.002 84.112 192.206 83.328 192.584 81.97L191.142 81.606C190.96 82.376 190.302 82.81 189.378 82.81C188.258 82.81 187.474 82.054 187.334 80.836H192.724C192.738 80.71 192.752 80.416 192.752 80.206ZM187.404 79.674C187.628 78.624 188.314 78.036 189.28 78.036C190.4 78.036 191.03 78.722 191.128 79.674H187.404ZM198.553 78.428L198.637 76.958C198.427 76.874 198.119 76.832 197.853 76.832C196.999 76.832 196.075 77.448 195.697 78.288V76.944H194.171V84H195.697V81.368C195.697 79.184 196.607 78.26 197.643 78.26C197.965 78.26 198.301 78.316 198.553 78.428ZM202.191 76.832C200.693 76.832 199.489 77.742 199.265 79.128L200.637 79.38C200.735 78.54 201.337 78.036 202.191 78.036C203.115 78.036 203.717 78.568 203.717 79.436V79.534L202.387 79.674C200.217 79.898 199.139 80.64 199.139 82.026C199.139 83.23 200.105 84.112 201.505 84.112C202.443 84.112 203.311 83.636 203.717 82.922V84H205.215V79.604C205.215 77.84 203.983 76.832 202.191 76.832ZM201.813 82.936C201.099 82.936 200.637 82.544 200.637 81.984C200.637 81.368 201.225 80.948 202.373 80.822L203.717 80.668V80.962C203.703 82.11 203.003 82.936 201.813 82.936ZM210.918 83.944L210.82 82.586C210.554 82.712 210.232 82.754 209.966 82.754C209.392 82.754 209 82.39 209 81.69V78.246H210.82V76.944H209V74.844H207.474V76.944H206.242V78.246H207.474V81.774C207.474 83.384 208.468 84.112 209.798 84.112C210.19 84.112 210.582 84.056 210.918 83.944ZM212.961 75.768C213.535 75.768 213.969 75.334 213.969 74.788C213.969 74.228 213.535 73.794 212.961 73.794C212.401 73.794 211.981 74.228 211.981 74.788C211.981 75.334 212.401 75.768 212.961 75.768ZM212.205 84H213.731V76.944H212.205V84ZM218.803 84.112C220.917 84.112 222.443 82.586 222.443 80.472C222.443 78.358 220.917 76.832 218.803 76.832C216.675 76.832 215.163 78.358 215.163 80.472C215.163 82.586 216.675 84.112 218.803 84.112ZM218.803 82.782C217.543 82.782 216.703 81.83 216.703 80.472C216.703 79.114 217.543 78.162 218.803 78.162C220.049 78.162 220.903 79.114 220.903 80.472C220.903 81.83 220.049 82.782 218.803 82.782ZM223.853 84H225.379V80.906C225.379 79.212 226.093 78.204 227.283 78.204C228.179 78.204 228.725 78.82 228.725 79.702V84H230.251V79.352C230.251 77.826 229.201 76.832 227.703 76.832C226.667 76.832 225.855 77.364 225.379 78.12V76.944H223.853V84ZM234.478 84.112C236.074 84.112 237.138 83.174 237.138 81.956C237.138 79.058 233.176 80.094 233.176 78.736C233.176 78.274 233.596 78.008 234.268 78.008C234.912 78.008 235.57 78.4 235.752 79.1L237.012 78.568C236.704 77.532 235.584 76.832 234.254 76.832C232.728 76.832 231.762 77.658 231.762 78.764C231.762 81.438 235.696 80.444 235.696 81.97C235.696 82.474 235.206 82.894 234.478 82.894C233.498 82.894 232.952 82.264 232.714 81.508L231.454 82.04C231.776 83.048 232.756 84.112 234.478 84.112Z" fill="#100024"/>
<path opacity="0.4" d="M157 101L334 101" stroke="#CACACA"/>
</g>
<g filter="url(#filter1_dd_638_195)">
<rect x="332" y="20" width="206" height="39" rx="8" fill="white"/>
<path opacity="0.6" d="M364.897 44H367.757C370.292 44 372.385 42.453 372.385 39.45C372.385 36.447 370.292 34.9 367.757 34.9H364.897V44ZM366.392 42.661V36.226H367.653C369.291 36.226 370.825 37.123 370.825 39.45C370.825 41.777 369.291 42.661 367.653 42.661H366.392ZM373.758 44H379.842V42.661H375.279V39.84H378.841V38.514H375.279V36.226H379.699V34.9H373.758V44ZM383.797 44H385.292L388.659 34.9H387.112L384.538 42.206L382.003 34.9H380.443L383.797 44ZM396.793 44.104C397.976 44.104 399.042 43.584 399.458 42.778V44H400.836V39.203H396.507V40.464H399.419C399.341 41.829 398.353 42.765 396.845 42.765C395.142 42.765 393.92 41.582 393.92 39.45C393.92 37.318 395.142 36.122 396.858 36.122C398.184 36.122 399.133 36.876 399.367 38.072L400.875 37.76C400.524 35.927 398.99 34.796 396.871 34.796C394.544 34.796 392.373 36.343 392.373 39.45C392.373 42.557 394.505 44.104 396.793 44.104ZM409.781 44L407.285 39.879C408.247 39.463 408.819 38.579 408.819 37.513C408.819 35.927 407.675 34.9 405.92 34.9H402.501L402.514 44H404.035V40.139H405.725L408.026 44H409.781ZM404.035 36.226H405.699C406.7 36.226 407.272 36.707 407.272 37.513C407.272 38.332 406.7 38.8 405.699 38.8H404.035V36.226ZM416.977 44H418.55L415.001 34.9H413.584L410.048 44H411.621L412.427 41.855H416.171L416.977 44ZM412.921 40.542L414.299 36.902L415.677 40.542H412.921ZM419.487 44H421.021V40.334H423.075C424.882 40.334 426.052 39.268 426.052 37.617C426.052 35.966 424.882 34.9 423.075 34.9H419.487V44ZM421.021 39.008V36.226H422.971C423.933 36.226 424.505 36.746 424.505 37.617C424.505 38.488 423.933 39.008 422.971 39.008H421.021ZM433.042 34.9V38.579H428.752V34.9H427.231V44H428.752V39.918H433.042V44H434.576V34.9H433.042Z" fill="#100024"/>
<circle cx="351" cy="40" r="4" fill="#83BF90"/>
<mask id="path-10-inside-1_638_195" fill="white">
<path d="M502 20H538V59H502V20Z"/>
</mask>
<path d="M502 20H538V59H502V20Z" fill="#EDECF1"/>
<path d="M503 59V20H501V59H503Z" fill="#D2D2D2" mask="url(#path-10-inside-1_638_195)"/>
<g clip-path="url(#clip0_638_195)">
<path d="M525.625 37.75L520 43.375L514.375 37.75" stroke="#100024" stroke-width="2" stroke-linecap="round" stroke-linejoin="round"/>
</g>
<rect x="332" y="20" width="206" height="39" rx="8" stroke="#D2D2D2"/>
</g>
<g filter="url(#filter2_dd_638_195)">
<rect x="332" y="68" width="206" height="101" rx="8" fill="white"/>
<path d="M367.348 93.112C369.546 93.112 371.114 91.936 371.59 90.046L369.952 89.696C369.644 90.928 368.72 91.67 367.348 91.67C365.542 91.67 364.198 90.424 364.198 88.1C364.198 85.776 365.556 84.516 367.348 84.516C368.706 84.516 369.7 85.314 369.98 86.63L371.604 86.28C371.254 84.334 369.616 83.088 367.348 83.088C364.842 83.088 362.532 84.754 362.532 88.1C362.532 91.446 364.814 93.112 367.348 93.112ZM376.275 93.112C378.389 93.112 379.915 91.586 379.915 89.472C379.915 87.358 378.389 85.832 376.275 85.832C374.147 85.832 372.635 87.358 372.635 89.472C372.635 91.586 374.147 93.112 376.275 93.112ZM376.275 91.782C375.015 91.782 374.175 90.83 374.175 89.472C374.175 88.114 375.015 87.162 376.275 87.162C377.521 87.162 378.375 88.114 378.375 89.472C378.375 90.83 377.521 91.782 376.275 91.782ZM381.326 93H382.852V89.906C382.852 88.212 383.566 87.204 384.756 87.204C385.652 87.204 386.198 87.82 386.198 88.702V93H387.724V88.352C387.724 86.826 386.674 85.832 385.176 85.832C384.14 85.832 383.328 86.364 382.852 87.12V85.944H381.326V93ZM389.515 93H391.041V89.906C391.041 88.212 391.755 87.204 392.945 87.204C393.841 87.204 394.387 87.82 394.387 88.702V93H395.913V88.352C395.913 86.826 394.863 85.832 393.365 85.832C392.329 85.832 391.517 86.364 391.041 87.12V85.944H389.515V93ZM404.243 89.206C404.243 87.484 403.039 85.832 400.771 85.832C398.531 85.832 397.327 87.568 397.327 89.472C397.327 91.376 398.601 93.112 400.841 93.112C402.493 93.112 403.697 92.328 404.075 90.97L402.633 90.606C402.451 91.376 401.793 91.81 400.869 91.81C399.749 91.81 398.965 91.054 398.825 89.836H404.215C404.229 89.71 404.243 89.416 404.243 89.206ZM398.895 88.674C399.119 87.624 399.805 87.036 400.771 87.036C401.891 87.036 402.521 87.722 402.619 88.674H398.895ZM408.826 93.112C410.548 93.112 411.766 92.23 412.06 90.76L410.562 90.466C410.394 91.292 409.764 91.782 408.868 91.782C407.664 91.782 406.866 90.872 406.866 89.472C406.866 88.072 407.65 87.162 408.868 87.162C409.764 87.162 410.422 87.708 410.562 88.506L412.046 88.212C411.808 86.756 410.562 85.832 408.826 85.832C406.712 85.832 405.284 87.302 405.284 89.472C405.284 91.642 406.712 93.112 408.826 93.112ZM417.336 92.944L417.238 91.586C416.972 91.712 416.65 91.754 416.384 91.754C415.81 91.754 415.418 91.39 415.418 90.69V87.246H417.238V85.944H415.418V83.844H413.892V85.944H412.66V87.246H413.892V90.774C413.892 92.384 414.886 93.112 416.216 93.112C416.608 93.112 417 93.056 417.336 92.944ZM425.01 89.206C425.01 87.484 423.806 85.832 421.538 85.832C419.298 85.832 418.094 87.568 418.094 89.472C418.094 91.376 419.368 93.112 421.608 93.112C423.26 93.112 424.464 92.328 424.842 90.97L423.4 90.606C423.218 91.376 422.56 91.81 421.636 91.81C420.516 91.81 419.732 91.054 419.592 89.836H424.982C424.996 89.71 425.01 89.416 425.01 89.206ZM419.662 88.674C419.886 87.624 420.572 87.036 421.538 87.036C422.658 87.036 423.288 87.722 423.386 88.674H419.662ZM429.425 93.112C430.363 93.112 431.217 92.692 431.553 92.104V93H433.079V83.088H431.553V86.826C431.133 86.238 430.307 85.832 429.397 85.832C427.269 85.832 426.051 87.344 426.051 89.472C426.051 91.6 427.269 93.112 429.425 93.112ZM429.621 91.782C428.389 91.782 427.577 90.858 427.577 89.472C427.577 88.072 428.389 87.162 429.621 87.162C430.853 87.162 431.665 88.072 431.665 89.472C431.665 90.858 430.853 91.782 429.621 91.782Z" fill="#83BF90"/>
<path opacity="0.8" d="M347.897 120H349.002V117.192C349.002 115.437 349.782 114.345 350.991 114.345C351.992 114.345 352.59 114.93 352.59 115.892V120H353.695V115.684C353.695 114.267 352.72 113.344 351.238 113.344C350.276 113.344 349.483 113.799 349.002 114.735V110.796H347.897V120ZM358.732 119.948L358.654 118.934C358.394 119.064 358.095 119.103 357.835 119.103C357.263 119.103 356.873 118.765 356.873 118.076V114.423H358.628V113.448H356.873V111.459H355.768V113.448H354.546V114.423H355.768V118.037C355.768 119.48 356.587 120.104 357.705 120.104C358.056 120.104 358.407 120.065 358.732 119.948ZM363.505 119.948L363.427 118.934C363.167 119.064 362.868 119.103 362.608 119.103C362.036 119.103 361.646 118.765 361.646 118.076V114.423H363.401V113.448H361.646V111.459H360.541V113.448H359.319V114.423H360.541V118.037C360.541 119.48 361.36 120.104 362.478 120.104C362.829 120.104 363.18 120.065 363.505 119.948ZM364.794 122.366H365.899V119.09C366.341 119.688 367.199 120.104 368.031 120.104C370.046 120.104 371.19 118.648 371.19 116.724C371.19 114.8 370.072 113.344 368.057 113.344C367.108 113.344 366.25 113.799 365.899 114.397V113.448H364.794V122.366ZM367.927 119.116C366.653 119.116 365.808 118.167 365.808 116.724C365.808 115.281 366.653 114.332 367.927 114.332C369.227 114.332 370.072 115.281 370.072 116.724C370.072 118.167 369.227 119.116 367.927 119.116ZM372.602 113.448V114.8H373.876V113.448H372.602ZM372.602 118.648V120H373.876V118.648H372.602ZM374.894 120.013H376.012L380.107 110.9H378.976L374.894 120.013ZM377.89 120.013H379.008L383.103 110.9H381.972L377.89 120.013ZM384.117 120H385.222V110.796H384.117V120ZM389.962 120.104C391.899 120.104 393.303 118.687 393.303 116.724C393.303 114.761 391.899 113.344 389.962 113.344C388.012 113.344 386.634 114.761 386.634 116.724C386.634 118.687 388.012 120.104 389.962 120.104ZM389.962 119.116C388.649 119.116 387.765 118.128 387.765 116.724C387.765 115.32 388.649 114.332 389.962 114.332C391.275 114.332 392.159 115.32 392.159 116.724C392.159 118.128 391.275 119.116 389.962 119.116ZM397.59 120.104C399.098 120.104 400.19 119.311 400.476 117.959L399.397 117.738C399.215 118.609 398.539 119.116 397.616 119.116C396.329 119.116 395.497 118.167 395.497 116.724C395.497 115.281 396.329 114.332 397.616 114.332C398.539 114.332 399.228 114.904 399.371 115.697L400.463 115.476C400.229 114.176 399.111 113.344 397.59 113.344C395.64 113.344 394.34 114.696 394.34 116.724C394.34 118.752 395.64 120.104 397.59 120.104ZM404.233 113.344C402.855 113.344 401.776 114.189 401.581 115.489L402.608 115.684C402.699 114.8 403.336 114.267 404.233 114.267C405.195 114.267 405.832 114.839 405.832 115.736V115.866L404.558 116.009C402.465 116.217 401.438 116.906 401.438 118.167C401.438 119.298 402.335 120.104 403.648 120.104C404.597 120.104 405.455 119.636 405.832 118.882V120H406.924V115.801C406.924 114.28 405.819 113.344 404.233 113.344ZM403.817 119.194C403.063 119.194 402.543 118.765 402.543 118.154C402.543 117.465 403.232 117.01 404.558 116.867L405.832 116.724V117.036C405.832 118.349 405.091 119.194 403.817 119.194ZM408.72 120H409.825V110.796H408.72V120ZM411.615 120H412.72V117.192C412.72 115.437 413.5 114.345 414.709 114.345C415.71 114.345 416.308 114.93 416.308 115.892V120H417.413V115.684C417.413 114.267 416.438 113.344 414.956 113.344C413.994 113.344 413.201 113.799 412.72 114.735V110.796H411.615V120ZM422.158 120.104C424.095 120.104 425.499 118.687 425.499 116.724C425.499 114.761 424.095 113.344 422.158 113.344C420.208 113.344 418.83 114.761 418.83 116.724C418.83 118.687 420.208 120.104 422.158 120.104ZM422.158 119.116C420.845 119.116 419.961 118.128 419.961 116.724C419.961 115.32 420.845 114.332 422.158 114.332C423.471 114.332 424.355 115.32 424.355 116.724C424.355 118.128 423.471 119.116 422.158 119.116ZM429.046 120.104C430.489 120.104 431.451 119.298 431.451 118.154C431.464 115.45 427.668 116.477 427.668 115.073C427.668 114.553 428.136 114.254 428.877 114.254C429.579 114.254 430.229 114.683 430.411 115.359L431.334 114.956C431.061 113.994 430.06 113.344 428.903 113.344C427.499 113.344 426.602 114.046 426.602 115.086C426.602 117.569 430.372 116.49 430.372 118.167C430.372 118.7 429.852 119.168 429.046 119.168C428.032 119.168 427.512 118.544 427.265 117.777L426.316 118.193C426.602 119.116 427.46 120.104 429.046 120.104ZM436.249 119.948L436.171 118.934C435.911 119.064 435.612 119.103 435.352 119.103C434.78 119.103 434.39 118.765 434.39 118.076V114.423H436.145V113.448H434.39V111.459H433.285V113.448H432.063V114.423H433.285V118.037C433.285 119.48 434.104 120.104 435.222 120.104C435.573 120.104 435.924 120.065 436.249 119.948ZM437.539 113.448V114.8H438.813V113.448H437.539ZM437.539 118.648V120H438.813V118.648H437.539ZM444.784 120H445.967V117.777H447.28V116.711H445.967V110.9H444.602L439.987 116.711V117.777H444.784V120ZM441.261 116.711L444.784 112.252V116.711H441.261ZM451.691 120.104C453.953 120.104 455.175 118.245 455.175 115.45C455.175 112.655 453.953 110.796 451.691 110.796C449.403 110.796 448.207 112.655 448.207 115.45C448.207 118.245 449.403 120.104 451.691 120.104ZM451.691 119.038C450.196 119.038 449.416 117.634 449.416 115.45C449.416 113.266 450.196 111.849 451.691 111.849C453.16 111.849 453.953 113.266 453.953 115.45C453.953 117.634 453.16 119.038 451.691 119.038ZM459.714 120.104C461.976 120.104 463.198 118.245 463.198 115.45C463.198 112.655 461.976 110.796 459.714 110.796C457.426 110.796 456.23 112.655 456.23 115.45C456.23 118.245 457.426 120.104 459.714 120.104ZM459.714 119.038C458.219 119.038 457.439 117.634 457.439 115.45C457.439 113.266 458.219 111.849 459.714 111.849C461.183 111.849 461.976 113.266 461.976 115.45C461.976 117.634 461.183 119.038 459.714 119.038ZM466.152 120H467.27V110.9H466.334C465.697 111.68 464.904 112.148 463.994 112.343V113.396C464.852 113.24 465.528 112.954 466.152 112.382V120Z" fill="#100024"/>
<circle cx="351" cy="88" r="4" fill="#83BF90"/>
<path opacity="0.8" d="M354.574 154H356.268L352.446 144.2H350.92L347.112 154H348.806L349.674 151.69H353.706L354.574 154ZM350.206 150.276L351.69 146.356L353.174 150.276H350.206ZM363.509 146.944H361.983V150.038C361.983 151.732 361.269 152.74 360.093 152.74C359.197 152.74 358.637 152.124 358.637 151.242V146.944H357.111V151.592C357.111 153.118 358.161 154.112 359.673 154.112C360.695 154.112 361.521 153.58 361.983 152.824V154H363.509V146.944ZM369.318 153.944L369.22 152.586C368.954 152.712 368.632 152.754 368.366 152.754C367.792 152.754 367.4 152.39 367.4 151.69V148.246H369.22V146.944H367.4V144.844H365.874V146.944H364.642V148.246H365.874V151.774C365.874 153.384 366.868 154.112 368.198 154.112C368.59 154.112 368.982 154.056 369.318 153.944ZM373.717 154.112C375.831 154.112 377.357 152.586 377.357 150.472C377.357 148.358 375.831 146.832 373.717 146.832C371.589 146.832 370.077 148.358 370.077 150.472C370.077 152.586 371.589 154.112 373.717 154.112ZM373.717 152.782C372.457 152.782 371.617 151.83 371.617 150.472C371.617 149.114 372.457 148.162 373.717 148.162C374.963 148.162 375.817 149.114 375.817 150.472C375.817 151.83 374.963 152.782 373.717 152.782ZM388.528 146.944H387.002V150.038C387.002 151.732 386.288 152.74 385.112 152.74C384.216 152.74 383.656 152.124 383.656 151.242V146.944H382.13V151.592C382.13 153.118 383.18 154.112 384.692 154.112C385.714 154.112 386.54 153.58 387.002 152.824V154H388.528V146.944ZM390.334 156.548H391.86V153.188C392.294 153.748 393.12 154.112 393.974 154.112C396.088 154.112 397.376 152.6 397.376 150.472C397.376 148.344 396.144 146.832 394.058 146.832C393.078 146.832 392.252 147.266 391.86 147.84V146.944H390.334V156.548ZM393.806 152.782C392.574 152.782 391.762 151.858 391.762 150.472C391.762 149.072 392.574 148.162 393.806 148.162C395.038 148.162 395.85 149.072 395.85 150.472C395.85 151.858 395.038 152.782 393.806 152.782ZM401.779 154.112C402.717 154.112 403.571 153.692 403.907 153.104V154H405.433V144.088H403.907V147.826C403.487 147.238 402.661 146.832 401.751 146.832C399.623 146.832 398.405 148.344 398.405 150.472C398.405 152.6 399.623 154.112 401.779 154.112ZM401.975 152.782C400.743 152.782 399.931 151.858 399.931 150.472C399.931 149.072 400.743 148.162 401.975 148.162C403.207 148.162 404.019 149.072 404.019 150.472C404.019 151.858 403.207 152.782 401.975 152.782ZM409.92 146.832C408.422 146.832 407.218 147.742 406.994 149.128L408.366 149.38C408.464 148.54 409.066 148.036 409.92 148.036C410.844 148.036 411.446 148.568 411.446 149.436V149.534L410.116 149.674C407.946 149.898 406.868 150.64 406.868 152.026C406.868 153.23 407.834 154.112 409.234 154.112C410.172 154.112 411.04 153.636 411.446 152.922V154H412.944V149.604C412.944 147.84 411.712 146.832 409.92 146.832ZM409.542 152.936C408.828 152.936 408.366 152.544 408.366 151.984C408.366 151.368 408.954 150.948 410.102 150.822L411.446 150.668V150.962C411.432 152.11 410.732 152.936 409.542 152.936ZM418.646 153.944L418.548 152.586C418.282 152.712 417.96 152.754 417.694 152.754C417.12 152.754 416.728 152.39 416.728 151.69V148.246H418.548V146.944H416.728V144.844H415.202V146.944H413.97V148.246H415.202V151.774C415.202 153.384 416.196 154.112 417.526 154.112C417.918 154.112 418.31 154.056 418.646 153.944ZM426.321 150.206C426.321 148.484 425.117 146.832 422.849 146.832C420.609 146.832 419.405 148.568 419.405 150.472C419.405 152.376 420.679 154.112 422.919 154.112C424.571 154.112 425.775 153.328 426.153 151.97L424.711 151.606C424.529 152.376 423.871 152.81 422.947 152.81C421.827 152.81 421.043 152.054 420.903 150.836H426.293C426.307 150.71 426.321 150.416 426.321 150.206ZM420.973 149.674C421.197 148.624 421.883 148.036 422.849 148.036C423.969 148.036 424.599 148.722 424.697 149.674H420.973Z" fill="#100024"/>
<path opacity="0.8" d="M482.656 153.096C485.08 153.096 486.856 151.284 486.856 148.8C486.856 146.316 485.08 144.504 482.656 144.504C480.232 144.504 478.456 146.316 478.456 148.8C478.456 151.284 480.232 153.096 482.656 153.096ZM482.656 151.86C481.036 151.86 479.872 150.576 479.872 148.8C479.872 147.024 481.036 145.728 482.656 145.728C484.276 145.728 485.44 147.024 485.44 148.8C485.44 150.576 484.276 151.86 482.656 151.86ZM488.144 153H489.476V146.832L493.34 153H494.816V144.6H493.472V150.78L489.62 144.6H488.144V153Z" fill="#100024"/>
<rect x="501" y="143" width="23" height="12" rx="6" fill="#277FF1" stroke="#0E6AE0"/>
<rect x="513" y="144" width="10" height="10" rx="5" fill="white"/>
<path opacity="0.4" d="M347 133L524 133" stroke="#CACACA"/>
<rect x="332" y="68" width="206" height="101" rx="8" stroke="#D2D2D2"/>
</g>
<path d="M41.2648 218.288L44.3555 220.072L78.7878 160.435L75.697 158.651L41.2648 218.288Z" fill="#E535AB"/>
<path d="M109.421 213.523H40.5569V217.092H109.421V213.523Z" fill="#E535AB"/>
<path d="M41.9196 215.528L76.3647 235.416L78.1492 232.325L43.7041 212.437L41.9196 215.528Z" fill="#E535AB"/>
<path d="M71.8421 163.696L106.287 183.584L108.072 180.493L73.6266 160.605L71.8421 163.696Z" fill="#E535AB"/>
<path d="M41.9291 180.479L43.7136 183.57L78.1588 163.683L76.3743 160.592L41.9291 180.479Z" fill="#E535AB"/>
<path d="M71.2199 160.436L105.652 220.073L108.743 218.288L74.3107 158.651L71.2199 160.436Z" fill="#E535AB"/>
<path d="M46.8565 178.113H43.2875V217.888H46.8565V178.113Z" fill="#E535AB"/>
<path d="M106.712 178.113H103.143V217.888H106.712V178.113Z" fill="#E535AB"/>
<path d="M74.1985 231.205L75.7572 233.905L105.715 216.608L104.156 213.909L74.1985 231.205Z" fill="#E535AB"/>
<path d="M111.442 219.049C109.378 222.639 104.777 223.865 101.187 221.801C97.5965 219.737 96.371 215.136 98.435 211.545C100.499 207.955 105.1 206.729 108.69 208.793C112.302 210.879 113.528 215.458 111.442 219.049Z" fill="#E535AB"/>
<path d="M51.5435 184.455C49.4795 188.046 44.8785 189.271 41.288 187.207C37.6975 185.143 36.472 180.542 38.536 176.952C40.6 173.361 45.201 172.136 48.7915 174.2C52.382 176.285 53.6075 180.865 51.5435 184.455Z" fill="#E535AB"/>
<path d="M38.5575 219.049C36.4935 215.458 37.719 210.879 41.3095 208.793C44.9 206.729 49.4795 207.955 51.565 211.545C53.629 215.136 52.4035 219.715 48.813 221.801C45.201 223.865 40.6215 222.639 38.5575 219.049Z" fill="#E535AB"/>
<path d="M98.4565 184.455C96.3925 180.865 97.618 176.285 101.209 174.2C104.799 172.136 109.379 173.361 111.464 176.952C113.528 180.542 112.303 185.122 108.712 187.207C105.122 189.271 100.521 188.046 98.4565 184.455Z" fill="#E535AB"/>
<path d="M75 240.097C70.8505 240.097 67.4965 236.743 67.4965 232.594C67.4965 228.444 70.8505 225.09 75 225.09C79.1495 225.09 82.5035 228.444 82.5035 232.594C82.5035 236.722 79.1495 240.097 75 240.097Z" fill="#E535AB"/>
<path d="M75 170.91C70.8505 170.91 67.4965 167.556 67.4965 163.407C67.4965 159.257 70.8505 155.903 75 155.903C79.1495 155.903 82.5035 159.257 82.5035 163.407C82.5035 167.556 79.1495 170.91 75 170.91Z" fill="#E535AB"/>
<defs>
<filter id="filter0_dd_638_195" x="138" y="46.8592" width="266" height="304" filterUnits="userSpaceOnUse" color-interpolation-filters="sRGB">
<feFlood flood-opacity="0" result="BackgroundImageFix"/>
<feColorMatrix in="SourceAlpha" type="matrix" values="0 0 0 0 0 0 0 0 0 0 0 0 0 0 0 0 0 0 127 0" result="hardAlpha"/>
<feOffset dy="0.859158"/>
<feGaussianBlur stdDeviation="0.859158"/>
<feComposite in2="hardAlpha" operator="out"/>
<feColorMatrix type="matrix" values="0 0 0 0 0 0 0 0 0 0 0 0 0 0 0 0 0 0 0.06 0"/>
<feBlend mode="normal" in2="BackgroundImageFix" result="effect1_dropShadow_638_195"/>
<feColorMatrix in="SourceAlpha" type="matrix" values="0 0 0 0 0 0 0 0 0 0 0 0 0 0 0 0 0 0 127 0" result="hardAlpha"/>
<feOffset dy="0.859158"/>
<feGaussianBlur stdDeviation="4"/>
<feComposite in2="hardAlpha" operator="out"/>
<feColorMatrix type="matrix" values="0 0 0 0 0 0 0 0 0 0 0 0 0 0 0 0 0 0 0.1 0"/>
<feBlend mode="normal" in2="effect1_dropShadow_638_195" result="effect2_dropShadow_638_195"/>
<feBlend mode="normal" in="SourceGraphic" in2="effect2_dropShadow_638_195" result="shape"/>
</filter>
<filter id="filter1_dd_638_195" x="323.5" y="12.3592" width="223" height="56" filterUnits="userSpaceOnUse" color-interpolation-filters="sRGB">
<feFlood flood-opacity="0" result="BackgroundImageFix"/>
<feColorMatrix in="SourceAlpha" type="matrix" values="0 0 0 0 0 0 0 0 0 0 0 0 0 0 0 0 0 0 127 0" result="hardAlpha"/>
<feOffset dy="0.859158"/>
<feGaussianBlur stdDeviation="0.859158"/>
<feComposite in2="hardAlpha" operator="out"/>
<feColorMatrix type="matrix" values="0 0 0 0 0 0 0 0 0 0 0 0 0 0 0 0 0 0 0.06 0"/>
<feBlend mode="normal" in2="BackgroundImageFix" result="effect1_dropShadow_638_195"/>
<feColorMatrix in="SourceAlpha" type="matrix" values="0 0 0 0 0 0 0 0 0 0 0 0 0 0 0 0 0 0 127 0" result="hardAlpha"/>
<feOffset dy="0.859158"/>
<feGaussianBlur stdDeviation="4"/>
<feComposite in2="hardAlpha" operator="out"/>
<feColorMatrix type="matrix" values="0 0 0 0 0 0 0 0 0 0 0 0 0 0 0 0 0 0 0.1 0"/>
<feBlend mode="normal" in2="effect1_dropShadow_638_195" result="effect2_dropShadow_638_195"/>
<feBlend mode="normal" in="SourceGraphic" in2="effect2_dropShadow_638_195" result="shape"/>
</filter>
<filter id="filter2_dd_638_195" x="323.5" y="60.3592" width="223" height="118" filterUnits="userSpaceOnUse" color-interpolation-filters="sRGB">
<feFlood flood-opacity="0" result="BackgroundImageFix"/>
<feColorMatrix in="SourceAlpha" type="matrix" values="0 0 0 0 0 0 0 0 0 0 0 0 0 0 0 0 0 0 127 0" result="hardAlpha"/>
<feOffset dy="0.859158"/>
<feGaussianBlur stdDeviation="0.859158"/>
<feComposite in2="hardAlpha" operator="out"/>
<feColorMatrix type="matrix" values="0 0 0 0 0 0 0 0 0 0 0 0 0 0 0 0 0 0 0.06 0"/>
<feBlend mode="normal" in2="BackgroundImageFix" result="effect1_dropShadow_638_195"/>
<feColorMatrix in="SourceAlpha" type="matrix" values="0 0 0 0 0 0 0 0 0 0 0 0 0 0 0 0 0 0 127 0" result="hardAlpha"/>
<feOffset dy="0.859158"/>
<feGaussianBlur stdDeviation="4"/>
<feComposite in2="hardAlpha" operator="out"/>
<feColorMatrix type="matrix" values="0 0 0 0 0 0 0 0 0 0 0 0 0 0 0 0 0 0 0.1 0"/>
<feBlend mode="normal" in2="effect1_dropShadow_638_195" result="effect2_dropShadow_638_195"/>
<feBlend mode="normal" in="SourceGraphic" in2="effect2_dropShadow_638_195" result="shape"/>
</filter>
<clipPath id="clip0_638_195">
<rect width="18" height="18" fill="white" transform="translate(511 31)"/>
</clipPath>
</defs>
</svg>
