<svg width="557" height="396" viewBox="0 0 557 396" fill="none" xmlns="http://www.w3.org/2000/svg">
<g clip-path="url(#clip0_638_233)">
<rect width="557" height="396" rx="8" fill="#F6F5F9"/>
<g filter="url(#filter0_dd_638_233)">
<rect x="37" y="42" width="202" height="312" rx="8" fill="white"/>
<g clip-path="url(#clip1_638_233)">
<rect x="69" y="75" width="138" height="138" rx="69" fill="#63537E"/>
<path d="M115.792 177.002L120.72 172.102C121.665 171.158 122.415 170.033 122.926 168.793C123.438 167.553 123.701 166.222 123.7 164.878V157.735L148.881 163.268L156.527 164.023C147.535 176.881 130.993 179.798 115.792 177.002Z" fill="url(#paint0_linear_638_233)"/>
<path opacity="0.61" d="M115.792 177.002L120.72 172.102C121.665 171.158 122.415 170.033 122.926 168.793C123.438 167.553 123.701 166.222 123.7 164.878V157.735L148.881 163.268L156.527 164.023C147.535 176.881 130.993 179.798 115.792 177.002Z" fill="url(#paint1_radial_638_233)"/>
<path d="M86.9851 252.963L91.5952 209.539C92.5539 203.096 95.5544 197.143 100.145 192.576L115.793 176.982C130.994 179.779 147.536 176.861 156.528 164.013L164.332 165.236C167.394 165.716 170.246 167.11 172.522 169.239C174.799 171.368 176.397 174.135 177.114 177.188L189.305 229.108L130.795 271.198L123.761 268.452L113.91 269.02V220.274L106.101 251.881C105.853 252.919 105.918 254.009 106.287 255.01C106.656 256.01 107.313 256.876 108.172 257.495L123.761 268.452C123.761 268.452 111.839 271.827 112.201 276.586C106.389 273.261 96.5778 268.034 96.5778 268.034C88.9772 263.109 85.6439 261.987 86.9851 252.963Z" fill="#C2ACFF"/>
<path d="M86.9851 252.963L91.5952 209.539C92.5539 203.096 95.5544 197.143 100.145 192.576L115.793 176.982C130.994 179.779 147.536 176.861 156.528 164.013L164.332 165.236C167.394 165.716 170.246 167.11 172.522 169.239C174.799 171.368 176.397 174.135 177.114 177.188L189.305 229.108L132.062 271.867L123.731 268.432L113.88 261.389V212.356L106.071 251.876C105.823 252.914 105.888 254.004 106.257 255.005C106.626 256.005 107.283 256.871 108.143 257.49L123.731 268.447C123.731 268.447 111.809 271.822 112.171 276.581C106.359 273.256 96.548 268.029 96.548 268.029C88.9772 263.109 85.6439 261.987 86.9851 252.963Z" fill="url(#paint2_radial_638_233)"/>
<path opacity="0.76" d="M114.02 258.738L130.942 270.406L149.547 247.816L114.423 199.404L114.02 258.738Z" fill="url(#paint3_linear_638_233)"/>
<path d="M152.813 119.559C154.783 122.105 155.852 125.248 155.848 128.483L153.401 155.884C153.399 156.931 153.122 157.959 152.599 158.862C152.075 159.764 151.323 160.509 150.421 161.02C146.961 163.038 145.419 163.93 141.442 163.576C137.651 163.314 133.657 162.504 130.23 160.864C128.71 160.135 123.712 157.957 123.682 157.735L121.417 141.291C132.461 126.563 144.814 129.912 152.813 119.559Z" fill="url(#paint4_linear_638_233)"/>
<path opacity="0.9" d="M152.813 119.559C154.783 122.105 155.852 125.248 155.848 128.483L153.401 155.884C153.399 156.931 153.122 157.959 152.599 158.862C152.075 159.764 151.323 160.509 150.421 161.02C146.961 163.038 145.419 163.93 141.442 163.576C137.651 163.314 133.657 162.504 130.23 160.864C128.71 160.135 123.712 157.957 123.682 157.735L121.417 141.291C132.257 126.359 144.814 129.912 152.813 119.559Z" fill="url(#paint5_radial_638_233)"/>
<path d="M121.446 141.291L121.238 139.781C120.779 136.472 120.668 133.124 120.905 129.791L121.079 127.336C121.67 119.79 129.166 114.161 136.633 114.161L141.536 114C143.71 113.998 145.856 114.499 147.81 115.464C149.764 116.429 153.872 119.426 155.299 124.116C155.951 129.683 150.763 131.358 145.919 129.214C133.481 123.708 137.763 143.08 121.446 141.291Z" fill="url(#paint6_radial_638_233)"/>
<path d="M126.809 141.247C125.836 140.276 124.522 139.725 123.155 139.717C121.789 139.708 120.481 140.242 119.52 141.201C118.559 142.162 118.024 143.47 118.032 144.837C118.04 146.205 118.59 147.52 119.562 148.494C120.536 149.467 121.852 150.019 123.22 150.028C124.588 150.036 125.897 149.501 126.858 148.54" fill="url(#paint7_linear_638_233)"/>
</g>
<rect x="69" y="234" width="137" height="20" rx="10" fill="#EBE9F0"/>
<rect x="53" y="279" width="171" height="7" rx="3.5" fill="#EBE9F0"/>
<rect x="53" y="296" width="155" height="7" rx="3.5" fill="#EBE9F0"/>
<rect x="53" y="313" width="71" height="7" rx="3.5" fill="#EBE9F0"/>
</g>
<g filter="url(#filter1_dd_638_233)">
<rect x="267" y="42" width="202" height="312" rx="8" fill="white"/>
<g clip-path="url(#clip2_638_233)">
<rect x="282" y="58" width="172" height="172" rx="86" fill="#3D2861"/>
<path d="M336.168 181.954L343.232 174.931C344.586 173.578 345.661 171.966 346.395 170.188C347.128 168.411 347.505 166.503 347.504 164.577V154.338L383.597 162.269L394.555 163.351C381.667 181.78 357.956 185.962 336.168 181.954Z" fill="url(#paint8_linear_638_233)"/>
<path opacity="0.61" d="M336.168 181.954L343.232 174.931C344.586 173.578 345.661 171.966 346.395 170.188C347.128 168.411 347.505 166.503 347.504 164.577V154.338L383.597 162.269L394.555 163.351C381.667 181.78 357.956 185.962 336.168 181.954Z" fill="url(#paint9_radial_638_233)"/>
<path d="M294.879 290.83L301.487 228.591C302.861 219.355 307.162 210.823 313.741 204.277L336.17 181.925C357.958 185.934 381.669 181.752 394.556 163.337L405.743 165.089C410.132 165.778 414.218 167.776 417.481 170.827C420.745 173.879 423.036 177.845 424.063 182.221L441.536 256.639L357.673 316.968L347.591 313.031L333.471 313.846V243.978L322.278 289.28C321.923 290.768 322.016 292.33 322.545 293.764C323.074 295.198 324.016 296.439 325.247 297.327L347.591 313.031C347.591 313.031 330.502 317.869 331.022 324.69C322.691 319.924 308.629 312.433 308.629 312.433C297.735 305.374 292.957 303.766 294.879 290.83Z" fill="#C2ACFF"/>
<path d="M294.879 290.83L301.487 228.591C302.861 219.356 307.162 210.823 313.741 204.277L336.17 181.925C357.958 185.934 381.669 181.752 394.556 163.337L405.743 165.089C410.132 165.778 414.218 167.776 417.481 170.827C420.745 173.879 423.036 177.845 424.063 182.221L441.536 256.639L359.489 317.927L347.548 313.002L333.429 302.908V232.627L322.236 289.273C321.88 290.761 321.973 292.323 322.502 293.757C323.032 295.191 323.973 296.432 325.205 297.32L347.548 313.024C347.548 313.024 330.46 317.862 330.979 324.683C322.649 319.917 308.586 312.425 308.586 312.425C297.735 305.374 292.957 303.766 294.879 290.83Z" fill="url(#paint10_radial_638_233)"/>
<path opacity="0.76" d="M333.63 299.108L357.884 315.831L384.551 283.453L334.206 214.062L333.63 299.108Z" fill="url(#paint11_linear_638_233)"/>
<path d="M389.232 99.6196C392.055 103.27 393.587 107.774 393.582 112.411L390.075 151.686C390.072 153.186 389.675 154.659 388.924 155.953C388.174 157.247 387.096 158.315 385.803 159.047C380.844 161.939 378.634 163.218 372.933 162.71C367.5 162.335 361.776 161.174 356.863 158.824C354.684 157.778 347.521 154.656 347.478 154.339L344.231 130.768C360.061 109.659 377.767 114.458 389.232 99.6196Z" fill="url(#paint12_linear_638_233)"/>
<path opacity="0.9" d="M389.232 99.6196C392.055 103.27 393.587 107.774 393.582 112.411L390.075 151.686C390.072 153.186 389.675 154.659 388.924 155.953C388.174 157.247 387.096 158.315 385.803 159.047C380.844 161.939 378.634 163.218 372.933 162.71C367.5 162.335 361.776 161.174 356.863 158.824C354.684 157.778 347.521 154.656 347.478 154.339L344.231 130.768C359.769 109.366 377.767 114.458 389.232 99.6196Z" fill="url(#paint13_radial_638_233)"/>
<path d="M344.273 130.768L343.974 128.605C343.317 123.862 343.157 119.062 343.497 114.285L343.746 110.767C344.594 99.9512 355.338 91.8828 366.04 91.8828L373.068 91.6521C376.184 91.6495 379.26 92.367 382.061 93.7503C384.862 95.1335 390.749 99.4293 392.795 106.152C393.729 114.13 386.294 116.532 379.351 113.458C361.522 105.567 367.66 133.333 344.273 130.768Z" fill="url(#paint14_radial_638_233)"/>
<path d="M351.96 130.706C350.565 129.314 348.681 128.525 346.722 128.513C344.764 128.5 342.89 129.266 341.512 130.641C340.135 132.018 339.368 133.892 339.379 135.852C339.391 137.812 340.18 139.697 341.573 141.093C342.968 142.489 344.854 143.279 346.815 143.292C348.777 143.304 350.652 142.537 352.031 141.159" fill="url(#paint15_linear_638_233)"/>
</g>
<rect x="299" y="234" width="137" height="20" rx="10" fill="#EBE9F0"/>
<rect x="283" y="279" width="171" height="7" rx="3.5" fill="#EBE9F0"/>
<rect x="283" y="296" width="155" height="7" rx="3.5" fill="#EBE9F0"/>
<rect x="283" y="313" width="71" height="7" rx="3.5" fill="#EBE9F0"/>
</g>
<g filter="url(#filter2_dd_638_233)">
<rect x="497" y="42" width="202" height="312" rx="8" fill="white"/>
<g clip-path="url(#clip3_638_233)">
<rect x="529" y="75" width="138" height="138" rx="69" fill="#63537E"/>
<path d="M547.574 251.359L552.131 208.437C553.078 202.068 556.044 196.183 560.581 191.67L576.049 176.255C591.075 179.02 607.426 176.136 616.314 163.436L624.028 164.644C627.055 165.12 629.874 166.497 632.124 168.602C634.374 170.706 635.954 173.441 636.663 176.459L648.713 227.78L590.878 269.384L583.925 266.67L574.188 267.231V219.048L566.469 250.29C566.224 251.317 566.288 252.394 566.653 253.383C567.018 254.372 567.667 255.227 568.516 255.839L583.925 266.67C583.925 266.67 572.14 270.006 572.499 274.71C566.754 271.423 557.056 266.257 557.056 266.257C549.543 261.389 546.248 260.28 547.574 251.359Z" fill="#C2ACFF"/>
<path d="M547.574 251.359L552.131 208.437C553.078 202.068 556.044 196.183 560.581 191.67L576.049 176.255C591.075 179.02 607.426 176.136 616.314 163.436L624.028 164.644C627.055 165.12 629.874 166.497 632.124 168.602C634.374 170.706 635.954 173.441 636.663 176.459L648.713 227.78L592.131 270.046L583.896 266.65L574.159 259.688V211.221L566.439 250.285C566.194 251.312 566.258 252.389 566.623 253.378C566.988 254.367 567.637 255.222 568.487 255.835L583.896 266.665C583.896 266.665 572.111 270.001 572.469 274.705C566.724 271.418 557.026 266.252 557.026 266.252C549.543 261.389 546.248 260.28 547.574 251.359Z" fill="url(#paint16_radial_638_233)"/>
</g>
<rect x="529" y="234" width="137" height="20" rx="10" fill="#EBE9F0"/>
<rect x="513" y="279" width="171" height="7" rx="3.5" fill="#EBE9F0"/>
<rect x="513" y="296" width="155" height="7" rx="3.5" fill="#EBE9F0"/>
<rect x="513" y="313" width="71" height="7" rx="3.5" fill="#EBE9F0"/>
</g>
<path opacity="0.2" d="M368 62C322.713 62 286 98.7127 286 144C286 163.401 292.737 181.228 304 195.269C304 195.269 329 146.821 365.5 141.161C402 135.5 427 87.0525 427 87.0525C412.088 71.6062 391.166 62 368 62Z" fill="white"/>
<g filter="url(#filter3_d_638_233)">
<path d="M427 200.947C441.24 186.197 450 166.122 450 144C450 98.7127 413.287 62 368 62C322.713 62 286 98.7127 286 144C286 189.287 322.713 226 368 226C391.166 226 412.088 216.394 427 200.947ZM427 200.947L495.553 269.5" stroke="url(#paint17_linear_638_233)" stroke-width="28" stroke-linejoin="round" shape-rendering="crispEdges"/>
</g>
</g>
<defs>
<filter id="filter0_dd_638_233" x="29" y="34.8592" width="218" height="328" filterUnits="userSpaceOnUse" color-interpolation-filters="sRGB">
<feFlood flood-opacity="0" result="BackgroundImageFix"/>
<feColorMatrix in="SourceAlpha" type="matrix" values="0 0 0 0 0 0 0 0 0 0 0 0 0 0 0 0 0 0 127 0" result="hardAlpha"/>
<feOffset dy="0.859158"/>
<feGaussianBlur stdDeviation="0.859158"/>
<feComposite in2="hardAlpha" operator="out"/>
<feColorMatrix type="matrix" values="0 0 0 0 0 0 0 0 0 0 0 0 0 0 0 0 0 0 0.06 0"/>
<feBlend mode="normal" in2="BackgroundImageFix" result="effect1_dropShadow_638_233"/>
<feColorMatrix in="SourceAlpha" type="matrix" values="0 0 0 0 0 0 0 0 0 0 0 0 0 0 0 0 0 0 127 0" result="hardAlpha"/>
<feOffset dy="0.859158"/>
<feGaussianBlur stdDeviation="4"/>
<feComposite in2="hardAlpha" operator="out"/>
<feColorMatrix type="matrix" values="0 0 0 0 0 0 0 0 0 0 0 0 0 0 0 0 0 0 0.1 0"/>
<feBlend mode="normal" in2="effect1_dropShadow_638_233" result="effect2_dropShadow_638_233"/>
<feBlend mode="normal" in="SourceGraphic" in2="effect2_dropShadow_638_233" result="shape"/>
</filter>
<filter id="filter1_dd_638_233" x="259" y="34.8592" width="218" height="328" filterUnits="userSpaceOnUse" color-interpolation-filters="sRGB">
<feFlood flood-opacity="0" result="BackgroundImageFix"/>
<feColorMatrix in="SourceAlpha" type="matrix" values="0 0 0 0 0 0 0 0 0 0 0 0 0 0 0 0 0 0 127 0" result="hardAlpha"/>
<feOffset dy="0.859158"/>
<feGaussianBlur stdDeviation="0.859158"/>
<feComposite in2="hardAlpha" operator="out"/>
<feColorMatrix type="matrix" values="0 0 0 0 0 0 0 0 0 0 0 0 0 0 0 0 0 0 0.06 0"/>
<feBlend mode="normal" in2="BackgroundImageFix" result="effect1_dropShadow_638_233"/>
<feColorMatrix in="SourceAlpha" type="matrix" values="0 0 0 0 0 0 0 0 0 0 0 0 0 0 0 0 0 0 127 0" result="hardAlpha"/>
<feOffset dy="0.859158"/>
<feGaussianBlur stdDeviation="4"/>
<feComposite in2="hardAlpha" operator="out"/>
<feColorMatrix type="matrix" values="0 0 0 0 0 0 0 0 0 0 0 0 0 0 0 0 0 0 0.1 0"/>
<feBlend mode="normal" in2="effect1_dropShadow_638_233" result="effect2_dropShadow_638_233"/>
<feBlend mode="normal" in="SourceGraphic" in2="effect2_dropShadow_638_233" result="shape"/>
</filter>
<filter id="filter2_dd_638_233" x="489" y="34.8592" width="218" height="328" filterUnits="userSpaceOnUse" color-interpolation-filters="sRGB">
<feFlood flood-opacity="0" result="BackgroundImageFix"/>
<feColorMatrix in="SourceAlpha" type="matrix" values="0 0 0 0 0 0 0 0 0 0 0 0 0 0 0 0 0 0 127 0" result="hardAlpha"/>
<feOffset dy="0.859158"/>
<feGaussianBlur stdDeviation="0.859158"/>
<feComposite in2="hardAlpha" operator="out"/>
<feColorMatrix type="matrix" values="0 0 0 0 0 0 0 0 0 0 0 0 0 0 0 0 0 0 0.06 0"/>
<feBlend mode="normal" in2="BackgroundImageFix" result="effect1_dropShadow_638_233"/>
<feColorMatrix in="SourceAlpha" type="matrix" values="0 0 0 0 0 0 0 0 0 0 0 0 0 0 0 0 0 0 127 0" result="hardAlpha"/>
<feOffset dy="0.859158"/>
<feGaussianBlur stdDeviation="4"/>
<feComposite in2="hardAlpha" operator="out"/>
<feColorMatrix type="matrix" values="0 0 0 0 0 0 0 0 0 0 0 0 0 0 0 0 0 0 0.1 0"/>
<feBlend mode="normal" in2="effect1_dropShadow_638_233" result="effect2_dropShadow_638_233"/>
<feBlend mode="normal" in="SourceGraphic" in2="effect2_dropShadow_638_233" result="shape"/>
</filter>
<filter id="filter3_d_638_233" x="244" y="20" width="289.452" height="287.399" filterUnits="userSpaceOnUse" color-interpolation-filters="sRGB">
<feFlood flood-opacity="0" result="BackgroundImageFix"/>
<feColorMatrix in="SourceAlpha" type="matrix" values="0 0 0 0 0 0 0 0 0 0 0 0 0 0 0 0 0 0 127 0" result="hardAlpha"/>
<feOffset/>
<feGaussianBlur stdDeviation="14"/>
<feComposite in2="hardAlpha" operator="out"/>
<feColorMatrix type="matrix" values="0 0 0 0 0 0 0 0 0 0 0 0 0 0 0 0 0 0 0.34 0"/>
<feBlend mode="normal" in2="BackgroundImageFix" result="effect1_dropShadow_638_233"/>
<feBlend mode="normal" in="SourceGraphic" in2="effect1_dropShadow_638_233" result="shape"/>
</filter>
<linearGradient id="paint0_linear_638_233" x1="128.698" y1="151.532" x2="142.775" y2="186.438" gradientUnits="userSpaceOnUse">
<stop offset="0.17" stop-color="#100024"/>
<stop offset="0.76" stop-color="#CBB4F6"/>
<stop offset="1" stop-color="#D2BAFD"/>
</linearGradient>
<radialGradient id="paint1_radial_638_233" cx="0" cy="0" r="1" gradientUnits="userSpaceOnUse" gradientTransform="translate(154.709 177.464) rotate(180) scale(36.0257 36.4813)">
<stop stop-color="#FFCAB9"/>
<stop offset="1" stop-color="#D2B8FF" stop-opacity="0"/>
</radialGradient>
<radialGradient id="paint2_radial_638_233" cx="0" cy="0" r="1" gradientUnits="userSpaceOnUse" gradientTransform="translate(152.32 195.182) rotate(180) scale(86.6317 87.7272)">
<stop stop-color="#FFCAB9"/>
<stop offset="1" stop-color="#D2B8FF" stop-opacity="0"/>
</radialGradient>
<linearGradient id="paint3_linear_638_233" x1="102.018" y1="255.854" x2="122.959" y2="233.516" gradientUnits="userSpaceOnUse">
<stop stop-color="#1B2038"/>
<stop offset="0.24" stop-color="#313250" stop-opacity="0.88"/>
<stop offset="0.59" stop-color="#6E6692" stop-opacity="0.55"/>
<stop offset="1" stop-color="#D2BAFD" stop-opacity="0"/>
</linearGradient>
<linearGradient id="paint4_linear_638_233" x1="115.744" y1="154.033" x2="161.13" y2="137.827" gradientUnits="userSpaceOnUse">
<stop offset="0.17" stop-color="#100024"/>
<stop offset="0.65" stop-color="#D2BAFD"/>
</linearGradient>
<radialGradient id="paint5_radial_638_233" cx="0" cy="0" r="1" gradientUnits="userSpaceOnUse" gradientTransform="translate(154.681 153.892) rotate(180) scale(29.4932 29.8662)">
<stop stop-color="#FFCAB9"/>
<stop offset="1" stop-color="#C2ACFF" stop-opacity="0"/>
</radialGradient>
<radialGradient id="paint6_radial_638_233" cx="0" cy="0" r="1" gradientUnits="userSpaceOnUse" gradientTransform="translate(143.354 126.959) rotate(180) scale(42.8166 43.358)">
<stop offset="0.17" stop-color="#100024"/>
<stop offset="1" stop-color="#63537E"/>
</radialGradient>
<linearGradient id="paint7_linear_638_233" x1="117.646" y1="158.591" x2="140.147" y2="101.96" gradientUnits="userSpaceOnUse">
<stop offset="0.17" stop-color="#100024"/>
<stop offset="0.65" stop-color="#D2BAFD"/>
</linearGradient>
<linearGradient id="paint8_linear_638_233" x1="354.667" y1="145.448" x2="374.844" y2="195.479" gradientUnits="userSpaceOnUse">
<stop offset="0.17" stop-color="#100024"/>
<stop offset="0.76" stop-color="#CBB4F6"/>
<stop offset="1" stop-color="#D2BAFD"/>
</linearGradient>
<radialGradient id="paint9_radial_638_233" cx="0" cy="0" r="1" gradientUnits="userSpaceOnUse" gradientTransform="translate(391.949 182.617) rotate(180) scale(51.6364 52.2894)">
<stop stop-color="#FFCAB9"/>
<stop offset="1" stop-color="#D2B8FF" stop-opacity="0"/>
</radialGradient>
<radialGradient id="paint10_radial_638_233" cx="0" cy="0" r="1" gradientUnits="userSpaceOnUse" gradientTransform="translate(388.526 208.012) rotate(180) scale(124.171 125.741)">
<stop stop-color="#FFCAB9"/>
<stop offset="1" stop-color="#D2B8FF" stop-opacity="0"/>
</radialGradient>
<linearGradient id="paint11_linear_638_233" x1="316.426" y1="294.974" x2="346.441" y2="262.956" gradientUnits="userSpaceOnUse">
<stop stop-color="#1B2038"/>
<stop offset="0.24" stop-color="#313250" stop-opacity="0.88"/>
<stop offset="0.59" stop-color="#6E6692" stop-opacity="0.55"/>
<stop offset="1" stop-color="#D2BAFD" stop-opacity="0"/>
</linearGradient>
<linearGradient id="paint12_linear_638_233" x1="336.1" y1="149.032" x2="401.152" y2="125.804" gradientUnits="userSpaceOnUse">
<stop offset="0.17" stop-color="#100024"/>
<stop offset="0.65" stop-color="#D2BAFD"/>
</linearGradient>
<radialGradient id="paint13_radial_638_233" cx="0" cy="0" r="1" gradientUnits="userSpaceOnUse" gradientTransform="translate(391.909 148.83) rotate(180) scale(42.2732 42.8078)">
<stop stop-color="#FFCAB9"/>
<stop offset="1" stop-color="#C2ACFF" stop-opacity="0"/>
</radialGradient>
<radialGradient id="paint14_radial_638_233" cx="0" cy="0" r="1" gradientUnits="userSpaceOnUse" gradientTransform="translate(375.674 110.226) rotate(180) scale(61.37 62.1459)">
<stop offset="0.17" stop-color="#100024"/>
<stop offset="1" stop-color="#63537E"/>
</radialGradient>
<linearGradient id="paint15_linear_638_233" x1="338.827" y1="155.566" x2="371.078" y2="74.395" gradientUnits="userSpaceOnUse">
<stop offset="0.17" stop-color="#100024"/>
<stop offset="0.65" stop-color="#D2BAFD"/>
</linearGradient>
<radialGradient id="paint16_radial_638_233" cx="0" cy="0" r="1" gradientUnits="userSpaceOnUse" gradientTransform="translate(612.155 194.245) rotate(180) scale(85.6321 86.715)">
<stop stop-color="#FFCAB9"/>
<stop offset="1" stop-color="#D2B8FF" stop-opacity="0"/>
</radialGradient>
<linearGradient id="paint17_linear_638_233" x1="322" y1="79" x2="527" y2="316" gradientUnits="userSpaceOnUse">
<stop stop-color="#63537E"/>
<stop offset="1" stop-color="#B7AEC5"/>
</linearGradient>
<clipPath id="clip0_638_233">
<rect width="557" height="396" rx="8" fill="white"/>
</clipPath>
<clipPath id="clip1_638_233">
<rect x="69" y="75" width="138" height="138" rx="69" fill="white"/>
</clipPath>
<clipPath id="clip2_638_233">
<rect x="282" y="58" width="172" height="172" rx="86" fill="white"/>
</clipPath>
<clipPath id="clip3_638_233">
<rect x="529" y="75" width="138" height="138" rx="69" fill="white"/>
</clipPath>
</defs>
</svg>
