<svg width="557" height="396" viewBox="0 0 557 396" fill="none" xmlns="http://www.w3.org/2000/svg">
<rect width="557" height="396" rx="8" fill="#F6F5F9"/>
<g filter="url(#filter0_dd_638_275)">
<rect x="36" y="34" width="387" height="327" rx="8" fill="white"/>
<path d="M67.242 71H71.202C74.712 71 77.61 68.858 77.61 64.7C77.61 60.542 74.712 58.4 71.202 58.4H67.242V71ZM69.312 69.146V60.236H71.058C73.326 60.236 75.45 61.478 75.45 64.7C75.45 67.922 73.326 69.146 71.058 69.146H69.312ZM82.3775 61.784C80.4515 61.784 78.9035 62.954 78.6155 64.736L80.3795 65.06C80.5055 63.98 81.2795 63.332 82.3775 63.332C83.5655 63.332 84.3395 64.016 84.3395 65.132V65.258L82.6295 65.438C79.8395 65.726 78.4535 66.68 78.4535 68.462C78.4535 70.01 79.6955 71.144 81.4955 71.144C82.7015 71.144 83.8175 70.532 84.3395 69.614V71H86.2655V65.348C86.2655 63.08 84.6815 61.784 82.3775 61.784ZM81.8915 69.632C80.9735 69.632 80.3795 69.128 80.3795 68.408C80.3795 67.616 81.1355 67.076 82.6115 66.914L84.3395 66.716V67.094C84.3215 68.57 83.4215 69.632 81.8915 69.632ZM91.2039 71.144C93.2559 71.144 94.6239 69.938 94.6239 68.372C94.6239 64.646 89.5299 65.978 89.5299 64.232C89.5299 63.638 90.0699 63.296 90.9339 63.296C91.7619 63.296 92.6079 63.8 92.8419 64.7L94.4619 64.016C94.0659 62.684 92.6259 61.784 90.9159 61.784C88.9539 61.784 87.7119 62.846 87.7119 64.268C87.7119 67.706 92.7699 66.428 92.7699 68.39C92.7699 69.038 92.1399 69.578 91.2039 69.578C89.9439 69.578 89.2419 68.768 88.9359 67.796L87.3159 68.48C87.7299 69.776 88.9899 71.144 91.2039 71.144ZM95.8864 71H97.8484V67.076C97.8484 64.862 98.7664 63.548 100.278 63.548C101.502 63.548 102.258 64.286 102.258 65.492V71H104.22V65.042C104.22 63.062 102.87 61.784 100.818 61.784C99.5404 61.784 98.4784 62.36 97.8484 63.494V58.256H95.8864V71ZM110.737 71.144C113.509 71.144 115.075 69.2 115.075 66.464C115.075 63.728 113.509 61.784 110.773 61.784C109.603 61.784 108.541 62.306 108.001 63.062V58.256H106.039V71H108.001V69.848C108.433 70.604 109.531 71.144 110.737 71.144ZM110.485 69.434C108.901 69.434 107.857 68.246 107.857 66.464C107.857 64.664 108.901 63.494 110.485 63.494C112.069 63.494 113.113 64.664 113.113 66.464C113.113 68.246 112.069 69.434 110.485 69.434ZM120.578 71.144C123.296 71.144 125.258 69.182 125.258 66.464C125.258 63.746 123.296 61.784 120.578 61.784C117.842 61.784 115.898 63.746 115.898 66.464C115.898 69.182 117.842 71.144 120.578 71.144ZM120.578 69.434C118.958 69.434 117.878 68.21 117.878 66.464C117.878 64.718 118.958 63.494 120.578 63.494C122.18 63.494 123.278 64.718 123.278 66.464C123.278 68.21 122.18 69.434 120.578 69.434ZM129.975 61.784C128.049 61.784 126.501 62.954 126.213 64.736L127.977 65.06C128.103 63.98 128.877 63.332 129.975 63.332C131.163 63.332 131.937 64.016 131.937 65.132V65.258L130.227 65.438C127.437 65.726 126.051 66.68 126.051 68.462C126.051 70.01 127.293 71.144 129.093 71.144C130.299 71.144 131.415 70.532 131.937 69.614V71H133.863V65.348C133.863 63.08 132.279 61.784 129.975 61.784ZM129.489 69.632C128.571 69.632 127.977 69.128 127.977 68.408C127.977 67.616 128.733 67.076 130.209 66.914L131.937 66.716V67.094C131.919 68.57 131.019 69.632 129.489 69.632ZM141.304 63.836L141.412 61.946C141.142 61.838 140.746 61.784 140.404 61.784C139.306 61.784 138.118 62.576 137.632 63.656V61.928H135.67V71H137.632V67.616C137.632 64.808 138.802 63.62 140.134 63.62C140.548 63.62 140.98 63.692 141.304 63.836ZM145.807 71.144C147.013 71.144 148.111 70.604 148.543 69.848V71H150.505V58.256H148.543V63.062C148.003 62.306 146.941 61.784 145.771 61.784C143.035 61.784 141.469 63.728 141.469 66.464C141.469 69.2 143.035 71.144 145.807 71.144ZM146.059 69.434C144.475 69.434 143.431 68.246 143.431 66.464C143.431 64.664 144.475 63.494 146.059 63.494C147.643 63.494 148.687 64.664 148.687 66.464C148.687 68.246 147.643 69.434 146.059 69.434Z" fill="#100024" fill-opacity="0.55"/>
<g opacity="0.4" clip-path="url(#clip0_638_275)">
<path d="M386 62.5C386.828 62.5 387.5 61.8284 387.5 61C387.5 60.1716 386.828 59.5 386 59.5C385.172 59.5 384.5 60.1716 384.5 61C384.5 61.8284 385.172 62.5 386 62.5Z" fill="#100024"/>
<path d="M380 62.5C380.828 62.5 381.5 61.8284 381.5 61C381.5 60.1716 380.828 59.5 380 59.5C379.172 59.5 378.5 60.1716 378.5 61C378.5 61.8284 379.172 62.5 380 62.5Z" fill="#100024"/>
<path d="M392 62.5C392.828 62.5 393.5 61.8284 393.5 61C393.5 60.1716 392.828 59.5 392 59.5C391.172 59.5 390.5 60.1716 390.5 61C390.5 61.8284 391.172 62.5 392 62.5Z" fill="#100024"/>
</g>
<rect x="131" y="107" width="235" height="12" rx="6" fill="#EBE9F0"/>
<rect x="131" y="127" width="208" height="12" rx="6" fill="#EBE9F0"/>
<rect x="95.9705" y="100" width="32.4851" height="32.4851" transform="rotate(45 95.9705 100)" fill="#CEBDFF"/>
<rect x="131" y="168.941" width="235" height="12" rx="6" fill="#EBE9F0"/>
<rect x="131" y="188.941" width="208" height="12" rx="6" fill="#EBE9F0"/>
<rect x="77" y="166" width="38" height="38" rx="19" fill="#CEBDFF"/>
<rect x="131" y="230.882" width="235" height="12" rx="6" fill="#EBE9F0"/>
<rect x="131" y="250.882" width="208" height="12" rx="6" fill="#EBE9F0"/>
<rect x="79" y="230" width="34" height="34" fill="#CEBDFF"/>
<rect x="131" y="292.823" width="235" height="12" rx="6" fill="#EBE9F0"/>
<path d="M112.858 290.286L104.91 307.572L112.858 324.858L95.572 316.91L78.286 324.858L86.2344 307.572L78.286 290.286L95.572 298.234L112.858 290.286Z" fill="#CEBDFF"/>
<rect x="131" y="312.823" width="208" height="12" rx="6" fill="#EBE9F0"/>
</g>
<g filter="url(#filter1_dd_638_275)">
<rect x="278" y="78" width="243" height="90" rx="8" fill="#221F3C"/>
<path d="M355 123C355 138.464 342.464 151 327 151C311.536 151 299 138.464 299 123C299 107.536 311.536 95 327 95C342.464 95 355 107.536 355 123ZM312.99 123C312.99 130.738 319.262 137.01 327 137.01C334.738 137.01 341.01 130.738 341.01 123C341.01 115.262 334.738 108.99 327 108.99C319.262 108.99 312.99 115.262 312.99 123Z" fill="#D9D9D9"/>
<path d="M355 123C355 128.538 353.358 133.951 350.281 138.556C347.204 143.161 342.831 146.749 337.715 148.869C332.599 150.988 326.969 151.542 321.537 150.462C316.106 149.382 311.117 146.715 307.201 142.799C303.285 138.883 300.618 133.894 299.538 128.463C298.458 123.031 299.012 117.401 301.131 112.285C303.251 107.169 306.839 102.796 311.444 99.7189C316.049 96.6422 321.462 95 327 95V108.996C324.23 108.996 321.523 109.817 319.22 111.356C316.917 112.895 315.122 115.082 314.062 117.641C313.002 120.2 312.725 123.016 313.265 125.732C313.806 128.449 315.139 130.944 317.098 132.902C319.056 134.861 321.551 136.194 324.268 136.735C326.984 137.275 329.8 136.998 332.359 135.938C334.918 134.878 337.105 133.083 338.644 130.78C340.183 128.477 341.004 125.77 341.004 123H355Z" fill="#22DDA5"/>
<path d="M355 123C355 128.902 353.135 134.654 349.671 139.433C346.207 144.212 341.321 147.774 335.712 149.61C330.103 151.447 324.057 151.464 318.437 149.659C312.818 147.854 307.912 144.319 304.422 139.559L315.697 131.29C317.445 133.672 319.9 135.442 322.713 136.345C325.527 137.249 328.553 137.24 331.361 136.321C334.169 135.402 336.615 133.618 338.349 131.226C340.083 128.834 341.017 125.955 341.017 123H355Z" fill="#7626FA"/>
<path d="M355 123C355 128.902 353.135 134.654 349.671 139.433C346.207 144.212 341.321 147.774 335.712 149.61C330.103 151.447 324.057 151.464 318.437 149.659C312.818 147.854 307.912 144.319 304.422 139.559L315.697 131.29C317.445 133.672 319.9 135.442 322.713 136.345C325.527 137.249 328.553 137.24 331.361 136.321C334.169 135.402 336.615 133.618 338.349 131.226C340.083 128.834 341.017 125.955 341.017 123H355Z" fill="#7626FA"/>
<path opacity="0.5" d="M372.31 111.144C375.136 111.144 376.99 109.686 376.99 107.49C376.99 102.414 370.078 104.178 370.078 101.64C370.078 100.668 370.906 100.092 372.274 100.092C373.714 100.092 374.704 100.902 374.956 102.18L376.846 101.406C376.486 99.516 374.632 98.256 372.274 98.256C369.808 98.256 367.954 99.642 367.954 101.64C367.954 106.176 374.848 104.538 374.848 107.526C374.848 108.606 373.876 109.308 372.382 109.308C370.87 109.308 369.628 108.246 369.412 106.626L367.486 107.22C367.846 109.524 369.862 111.144 372.31 111.144ZM383.364 110.928L383.238 109.182C382.896 109.344 382.482 109.398 382.14 109.398C381.402 109.398 380.898 108.93 380.898 108.03V103.602H383.238V101.928H380.898V99.228H378.936V101.928H377.352V103.602H378.936V108.138C378.936 110.208 380.214 111.144 381.924 111.144C382.428 111.144 382.932 111.072 383.364 110.928ZM387.835 101.784C385.909 101.784 384.361 102.954 384.073 104.736L385.837 105.06C385.963 103.98 386.737 103.332 387.835 103.332C389.023 103.332 389.797 104.016 389.797 105.132V105.258L388.087 105.438C385.297 105.726 383.911 106.68 383.911 108.462C383.911 110.01 385.153 111.144 386.953 111.144C388.159 111.144 389.275 110.532 389.797 109.614V111H391.723V105.348C391.723 103.08 390.139 101.784 387.835 101.784ZM387.349 109.632C386.431 109.632 385.837 109.128 385.837 108.408C385.837 107.616 386.593 107.076 388.069 106.914L389.797 106.716V107.094C389.779 108.57 388.879 109.632 387.349 109.632ZM398.554 110.928L398.428 109.182C398.086 109.344 397.672 109.398 397.33 109.398C396.592 109.398 396.088 108.93 396.088 108.03V103.602H398.428V101.928H396.088V99.228H394.126V101.928H392.542V103.602H394.126V108.138C394.126 110.208 395.404 111.144 397.114 111.144C397.618 111.144 398.122 111.072 398.554 110.928ZM403.087 111.144C405.139 111.144 406.507 109.938 406.507 108.372C406.507 104.646 401.413 105.978 401.413 104.232C401.413 103.638 401.953 103.296 402.817 103.296C403.645 103.296 404.491 103.8 404.725 104.7L406.345 104.016C405.949 102.684 404.509 101.784 402.799 101.784C400.837 101.784 399.595 102.846 399.595 104.268C399.595 107.706 404.653 106.428 404.653 108.39C404.653 109.038 404.023 109.578 403.087 109.578C401.827 109.578 401.125 108.768 400.819 107.796L399.199 108.48C399.613 109.776 400.873 111.144 403.087 111.144Z" fill="#F6F5F9"/>
<path d="M375.008 121.784C374.812 124.164 373.944 124.976 371.396 125.088L367.252 125.256V127.272H374.336V142H377.024V121.784H375.008ZM395.911 136.764H401.595V134.524H395.911V121.896H392.383L379.503 134.664V136.764H393.335V142H395.911V136.764ZM393.335 124.08V134.524H382.695L393.335 124.08ZM407.656 121.784C407.46 124.164 406.592 124.976 404.044 125.088L399.9 125.256V127.272H406.984V142H409.672V121.784H407.656ZM417.512 131.724C419.108 131.724 420.452 131.248 421.488 130.296C422.524 129.344 423.056 128.14 423.056 126.656C423.056 125.172 422.524 123.968 421.488 123.016C420.452 122.064 419.108 121.588 417.512 121.588C415.916 121.588 414.572 122.064 413.536 123.016C412.5 123.968 411.968 125.172 411.968 126.656C411.968 128.14 412.5 129.344 413.536 130.296C414.572 131.248 415.916 131.724 417.512 131.724ZM431.12 121.896L414.544 142H417.036L433.64 121.896H431.12ZM417.512 123.464C419.5 123.464 420.872 124.752 420.872 126.656C420.872 128.56 419.5 129.876 417.512 129.876C415.524 129.876 414.152 128.56 414.152 126.656C414.152 124.752 415.524 123.464 417.512 123.464ZM430.644 132.172C429.02 132.172 427.676 132.648 426.64 133.6C425.604 134.552 425.1 135.756 425.1 137.24C425.1 138.724 425.604 139.928 426.64 140.88C427.676 141.832 429.02 142.308 430.644 142.308C432.24 142.308 433.556 141.832 434.592 140.88C435.628 139.928 436.16 138.724 436.16 137.24C436.16 135.756 435.628 134.552 434.592 133.6C433.556 132.648 432.24 132.172 430.644 132.172ZM430.644 134.02C432.632 134.02 434.004 135.336 434.004 137.24C434.004 139.116 432.632 140.432 430.644 140.432C428.656 140.432 427.256 139.116 427.256 137.24C427.256 135.336 428.656 134.02 430.644 134.02Z" fill="white"/>
<g opacity="0.5" clip-path="url(#clip1_638_275)">
<path d="M472 133.625L472 112.625" stroke="white" stroke-width="2" stroke-linecap="round" stroke-linejoin="round"/>
<path d="M464.125 119.875L472 112L479.875 119.875" stroke="white" stroke-width="2" stroke-linecap="round" stroke-linejoin="round"/>
</g>
</g>
<defs>
<filter id="filter0_dd_638_275" x="28" y="26.8592" width="403" height="343" filterUnits="userSpaceOnUse" color-interpolation-filters="sRGB">
<feFlood flood-opacity="0" result="BackgroundImageFix"/>
<feColorMatrix in="SourceAlpha" type="matrix" values="0 0 0 0 0 0 0 0 0 0 0 0 0 0 0 0 0 0 127 0" result="hardAlpha"/>
<feOffset dy="0.859158"/>
<feGaussianBlur stdDeviation="0.859158"/>
<feComposite in2="hardAlpha" operator="out"/>
<feColorMatrix type="matrix" values="0 0 0 0 0 0 0 0 0 0 0 0 0 0 0 0 0 0 0.06 0"/>
<feBlend mode="normal" in2="BackgroundImageFix" result="effect1_dropShadow_638_275"/>
<feColorMatrix in="SourceAlpha" type="matrix" values="0 0 0 0 0 0 0 0 0 0 0 0 0 0 0 0 0 0 127 0" result="hardAlpha"/>
<feOffset dy="0.859158"/>
<feGaussianBlur stdDeviation="4"/>
<feComposite in2="hardAlpha" operator="out"/>
<feColorMatrix type="matrix" values="0 0 0 0 0 0 0 0 0 0 0 0 0 0 0 0 0 0 0.1 0"/>
<feBlend mode="normal" in2="effect1_dropShadow_638_275" result="effect2_dropShadow_638_275"/>
<feBlend mode="normal" in="SourceGraphic" in2="effect2_dropShadow_638_275" result="shape"/>
</filter>
<filter id="filter1_dd_638_275" x="270" y="70.8592" width="259" height="106" filterUnits="userSpaceOnUse" color-interpolation-filters="sRGB">
<feFlood flood-opacity="0" result="BackgroundImageFix"/>
<feColorMatrix in="SourceAlpha" type="matrix" values="0 0 0 0 0 0 0 0 0 0 0 0 0 0 0 0 0 0 127 0" result="hardAlpha"/>
<feOffset dy="0.859158"/>
<feGaussianBlur stdDeviation="0.859158"/>
<feComposite in2="hardAlpha" operator="out"/>
<feColorMatrix type="matrix" values="0 0 0 0 0 0 0 0 0 0 0 0 0 0 0 0 0 0 0.06 0"/>
<feBlend mode="normal" in2="BackgroundImageFix" result="effect1_dropShadow_638_275"/>
<feColorMatrix in="SourceAlpha" type="matrix" values="0 0 0 0 0 0 0 0 0 0 0 0 0 0 0 0 0 0 127 0" result="hardAlpha"/>
<feOffset dy="0.859158"/>
<feGaussianBlur stdDeviation="4"/>
<feComposite in2="hardAlpha" operator="out"/>
<feColorMatrix type="matrix" values="0 0 0 0 0 0 0 0 0 0 0 0 0 0 0 0 0 0 0.1 0"/>
<feBlend mode="normal" in2="effect1_dropShadow_638_275" result="effect2_dropShadow_638_275"/>
<feBlend mode="normal" in="SourceGraphic" in2="effect2_dropShadow_638_275" result="shape"/>
</filter>
<clipPath id="clip0_638_275">
<rect width="24" height="24" fill="white" transform="translate(374 49)"/>
</clipPath>
<clipPath id="clip1_638_275">
<rect width="28" height="28" fill="white" transform="translate(458 109)"/>
</clipPath>
</defs>
</svg>
