<svg width="1421" height="572" viewBox="0 0 1421 572" fill="none" xmlns="http://www.w3.org/2000/svg">
<g clip-path="url(#clip0_806_8798)">
<rect width="1421" height="571.997" fill="#006351"/>
<rect width="1421" height="571.997" fill="#FFE3D2"/>
<path d="M704.387 373.237L856.563 571.997H552.211L704.387 373.237Z" fill="url(#paint0_linear_806_8798)"/>
<path d="M855.528 174.477L1007.7 373.237H703.353L855.528 174.477Z" fill="url(#paint1_linear_806_8798)"/>
<path d="M1460.09 174.477L1612.27 373.237H1307.91L1460.09 174.477Z" fill="url(#paint2_linear_806_8798)"/>
<path d="M1308.95 -24.283L1461.13 174.477H1156.77L1308.95 -24.283Z" fill="url(#paint3_linear_806_8798)"/>
<path d="M1007.7 373.237L1159.88 571.997H855.528L1007.7 373.237Z" fill="url(#paint4_linear_806_8798)"/>
<path d="M1311.02 373.237L1463.19 571.997H1158.84L1311.02 373.237Z" fill="url(#paint5_linear_806_8798)"/>
</g>
<defs>
<linearGradient id="paint0_linear_806_8798" x1="704.66" y1="368.907" x2="704.342" y2="571.997" gradientUnits="userSpaceOnUse">
<stop stop-color="#FFCAB9"/>
<stop offset="1" stop-color="#FFA589" stop-opacity="0"/>
</linearGradient>
<linearGradient id="paint1_linear_806_8798" x1="855.801" y1="170.147" x2="855.483" y2="373.237" gradientUnits="userSpaceOnUse">
<stop stop-color="#FFCAB9"/>
<stop offset="1" stop-color="#FFA589" stop-opacity="0"/>
</linearGradient>
<linearGradient id="paint2_linear_806_8798" x1="1460.36" y1="170.147" x2="1460.04" y2="373.237" gradientUnits="userSpaceOnUse">
<stop stop-color="#FFCAB9"/>
<stop offset="1" stop-color="#FFA589" stop-opacity="0"/>
</linearGradient>
<linearGradient id="paint3_linear_806_8798" x1="1309.22" y1="-28.6132" x2="1308.9" y2="174.477" gradientUnits="userSpaceOnUse">
<stop stop-color="#FFCAB9"/>
<stop offset="1" stop-color="#FFA589" stop-opacity="0"/>
</linearGradient>
<linearGradient id="paint4_linear_806_8798" x1="1007.98" y1="368.907" x2="1007.66" y2="571.997" gradientUnits="userSpaceOnUse">
<stop stop-color="#FFCAB9"/>
<stop offset="1" stop-color="#FFA589" stop-opacity="0"/>
</linearGradient>
<linearGradient id="paint5_linear_806_8798" x1="1311.29" y1="368.907" x2="1310.97" y2="571.997" gradientUnits="userSpaceOnUse">
<stop stop-color="#FFCAB9"/>
<stop offset="1" stop-color="#FFA589" stop-opacity="0"/>
</linearGradient>
<clipPath id="clip0_806_8798">
<rect width="1421" height="571.997" fill="white"/>
</clipPath>
</defs>
</svg>
